<svg id="Layer_1" data-name="Layer 1" xmlns="http://www.w3.org/2000/svg" viewBox="0 0 804.37 63"><defs><style>.cls-1,.cls-12,.cls-7{fill:#424143;}.cls-2{fill:none;stroke:#333;stroke-miterlimit:10;}.cls-3{fill:#de2d26;}.cls-4{fill:#fc9272;}.cls-5{fill:#fee0d2;}.cls-6{fill:#d1d3d4;}.cls-12,.cls-7{font-size:11px;font-family:AcuminProCond-Regular, Acumin Pro Condensed;}.cls-8{letter-spacing:-0.1em;}.cls-9{letter-spacing:-0.07em;}.cls-10{letter-spacing:0.01em;}.cls-11{letter-spacing:0em;}.cls-12,.cls-17{letter-spacing:-0.01em;}.cls-13{letter-spacing:-0.02em;}.cls-14{letter-spacing:-0.01em;}.cls-15{fill:#4f4e50;}.cls-16{letter-spacing:-0.01em;}.cls-18{letter-spacing:0em;}.cls-19{letter-spacing:0.01em;}.cls-20{letter-spacing:0em;}.cls-21{letter-spacing:0em;}.cls-22{letter-spacing:0.01em;}.cls-23{letter-spacing:0em;}.cls-24{letter-spacing:-0.01em;}.cls-25{letter-spacing:0.01em;}</style></defs><title>jmaps_legend</title><path class="cls-1" d="M590.85,18.73c0,1.3-.45,2-1.81,2a3.4,3.4,0,0,1-.71-.06v-1a3.84,3.84,0,0,0,.52,0c.64,0,.74-.38.74-1V14.49h1.26Z" transform="translate(-31.05 -8.5)"/><path class="cls-1" d="M593,18.61c0,.57.21,1.17.91,1.17a.75.75,0,0,0,.79-.55h1.2a1.94,1.94,0,0,1-2,1.51c-1.49,0-2.11-1-2.11-2.41a2.17,2.17,0,0,1,2.16-2.42c1.57,0,2,1.12,2,2.32,0,.06,0,.3,0,.38Zm1.77-.8c0-.53-.23-1-.87-1s-.86.56-.89,1Z" transform="translate(-31.05 -8.5)"/><path class="cls-1" d="M597.63,19.23a.71.71,0,0,0,.8.62c.44,0,.66-.16.66-.46s-.26-.42-1-.62c-1.24-.35-1.53-.79-1.53-1.45s.37-1.41,1.77-1.41c1.24,0,1.76.63,1.82,1.42H599a.58.58,0,0,0-.67-.54c-.33,0-.52.15-.52.41s.18.37.85.54c1.27.33,1.66.79,1.66,1.54,0,.95-.8,1.46-1.9,1.46s-1.86-.51-2-1.51Z" transform="translate(-31.05 -8.5)"/><path class="cls-1" d="M602,19.23a.7.7,0,0,0,.8.62c.43,0,.66-.16.66-.46s-.27-.42-1-.62c-1.24-.35-1.53-.79-1.53-1.45s.37-1.41,1.77-1.41c1.24,0,1.76.63,1.82,1.42h-1.19a.6.6,0,0,0-.68-.54c-.33,0-.52.15-.52.41s.18.37.85.54c1.27.33,1.66.79,1.66,1.54,0,.95-.8,1.46-1.9,1.46s-1.86-.51-2-1.51Z" transform="translate(-31.05 -8.5)"/><path class="cls-1" d="M605.51,14.11h1.22v1.13h-1.22Zm0,1.89h1.22v4.66h-1.22Z" transform="translate(-31.05 -8.5)"/><path class="cls-1" d="M611.75,19a1.87,1.87,0,0,1-2,1.71c-1.42,0-2.09-.88-2.09-2.41a2.14,2.14,0,0,1,2.17-2.42,1.77,1.77,0,0,1,2,1.74h-1.21c0-.42-.24-.81-.77-.81s-.9.59-.9,1.45c0,1.09.33,1.52.88,1.52s.69-.34.8-.78Z" transform="translate(-31.05 -8.5)"/><path class="cls-1" d="M616.25,19.45c0,.32,0,.88.06,1.21h-1.07a2.68,2.68,0,0,1-.07-.56,1.6,1.6,0,0,1-2.87-.78c0-.84.58-1.53,2.2-1.53h.55v-.34c0-.38-.12-.68-.67-.68a.61.61,0,0,0-.71.62h-1.19c0-.73.49-1.48,1.92-1.48,1.1,0,1.85.38,1.85,1.53Zm-1.16-.88h-.57c-.84,0-1,.34-1,.65a.57.57,0,0,0,.65.59c.74,0,.91-.48.91-1.14Z" transform="translate(-31.05 -8.5)"/><path class="cls-1" d="M624.57,20.66h-.93c0-.2-.07-.49-.09-.72a1.72,1.72,0,0,1-1.71.81c-1.61,0-2.46-1.34-2.46-3.14s1-3.2,2.82-3.2a2.16,2.16,0,0,1,2.38,1.85h-1.23a1.12,1.12,0,0,0-1.22-.84c-1.08,0-1.46,1-1.46,2.2s.41,2.13,1.45,2.13,1.2-.65,1.2-1.44v0H622V17.21h2.54Z" transform="translate(-31.05 -8.5)"/><path class="cls-1" d="M629.91,18.26c0,1.36-.65,2.49-2.24,2.49s-2.19-1.2-2.19-2.46a2.2,2.2,0,0,1,2.26-2.38A2.11,2.11,0,0,1,629.91,18.26Zm-3.19,0c0,1,.35,1.53,1,1.53s.95-.53.95-1.52-.32-1.4-1-1.4S626.72,17.41,626.72,18.26Z" transform="translate(-31.05 -8.5)"/><path class="cls-1" d="M631.63,19.23a.71.71,0,0,0,.8.62c.44,0,.67-.16.67-.46s-.27-.42-1-.62c-1.24-.35-1.53-.79-1.53-1.45s.37-1.41,1.77-1.41c1.24,0,1.76.63,1.82,1.42H633a.6.6,0,0,0-.68-.54c-.33,0-.52.15-.52.41s.18.37.85.54c1.27.33,1.66.79,1.66,1.54,0,.95-.8,1.46-1.9,1.46s-1.86-.51-2-1.51Z" transform="translate(-31.05 -8.5)"/><path class="cls-1" d="M635.08,20.66V14.11h1.23v6.55Z" transform="translate(-31.05 -8.5)"/><path class="cls-1" d="M637.46,14.11h1.22v1.13h-1.22Zm0,1.89h1.22v4.66h-1.22Z" transform="translate(-31.05 -8.5)"/><path class="cls-1" d="M639.83,17.45c0-1,0-1.25,0-1.45H641a4,4,0,0,1,0,.6,1.41,1.41,0,0,1,1.3-.69c1,0,1.47.62,1.47,1.7v3.05H642.6V17.84c0-.53-.13-.92-.72-.92s-.82.32-.82,1.14v2.6h-1.23Z" transform="translate(-31.05 -8.5)"/><path class="cls-1" d="M649,20.2c0,1.44-.59,2.33-2.2,2.33s-1.95-.82-2-1.51H646c.08.36.37.56.87.56.78,0,.94-.45.94-1.3V20a1.28,1.28,0,0,1-1.24.61c-1.12,0-1.86-.88-1.86-2.32a2.1,2.1,0,0,1,1.94-2.37c.74,0,1,.27,1.14.52a2.68,2.68,0,0,1,.05-.43H649c0,.23,0,.75,0,1.4Zm-3-1.94c0,.82.34,1.34.94,1.34s.93-.4.93-1.35-.12-1.34-.9-1.34C646.38,16.91,646,17.31,646,18.26Z" transform="translate(-31.05 -8.5)"/><path class="cls-1" d="M652.2,17.82v1h-2.33v-1Z" transform="translate(-31.05 -8.5)"/><path class="cls-1" d="M658.16,20.66h-.93a5.24,5.24,0,0,1-.09-.72,1.72,1.72,0,0,1-1.71.81c-1.62,0-2.47-1.34-2.47-3.14s1-3.2,2.82-3.2a2.17,2.17,0,0,1,2.39,1.85h-1.24a1.1,1.1,0,0,0-1.22-.84c-1.07,0-1.45,1-1.45,2.2s.41,2.13,1.45,2.13,1.2-.65,1.2-1.44v0h-1.29V17.21h2.54Z" transform="translate(-31.05 -8.5)"/><path class="cls-1" d="M663.5,18.26a2.18,2.18,0,0,1-2.24,2.49c-1.63,0-2.19-1.2-2.19-2.46a2.19,2.19,0,0,1,2.25-2.38A2.12,2.12,0,0,1,663.5,18.26Zm-3.19,0c0,1,.34,1.53,1,1.53s1-.53,1-1.52-.32-1.4-1-1.4S660.31,17.41,660.31,18.26Z" transform="translate(-31.05 -8.5)"/><path class="cls-1" d="M664.37,20.66V14.11h1.22v6.55Z" transform="translate(-31.05 -8.5)"/><path class="cls-1" d="M670.77,14.11v5.25c0,.54,0,1,0,1.3h-1.2c0-.13,0-.4,0-.55a1.28,1.28,0,0,1-1.31.64c-1.18,0-1.8-1-1.8-2.41s.75-2.43,2-2.43c.69,0,1,.24,1.09.42V14.11Zm-3.08,4.18c0,.88.3,1.47,1,1.47s1-.55,1-1.46-.2-1.39-.91-1.39S667.69,17.37,667.69,18.29Z" transform="translate(-31.05 -8.5)"/><path class="cls-1" d="M672.74,19.23a.71.71,0,0,0,.8.62c.43,0,.66-.16.66-.46s-.27-.42-1-.62c-1.24-.35-1.53-.79-1.53-1.45s.37-1.41,1.78-1.41c1.24,0,1.75.63,1.81,1.42h-1.19a.59.59,0,0,0-.68-.54c-.33,0-.52.15-.52.41s.18.37.86.54c1.27.33,1.65.79,1.65,1.54,0,.95-.8,1.46-1.9,1.46s-1.86-.51-2-1.51Z" transform="translate(-31.05 -8.5)"/><path class="cls-1" d="M676.22,17.44c0-.92,0-1.23,0-1.44h1.19c0,.16,0,.38,0,.55a1.44,1.44,0,0,1,1.29-.64,1.15,1.15,0,0,1,1.16.72,1.59,1.59,0,0,1,1.4-.72c.79,0,1.48.42,1.48,1.62v3.13h-1.2V17.73c0-.42-.15-.82-.66-.82s-.8.4-.8,1.1v2.65h-1.2v-3c0-.42-.19-.78-.67-.78s-.8.32-.8,1.14v2.6h-1.21Z" transform="translate(-31.05 -8.5)"/><path class="cls-1" d="M683.92,14.11h1.22v1.13h-1.22Zm0,1.89h1.22v4.66h-1.22Z" transform="translate(-31.05 -8.5)"/><path class="cls-1" d="M685.76,16h.66V14.73h1.21V16h.83V17h-.83v2.39c0,.32.08.45.46.45a1.42,1.42,0,0,0,.28,0v.85a2.67,2.67,0,0,1-.75.09c-.9,0-1.2-.37-1.2-1.23V17h-.66Z" transform="translate(-31.05 -8.5)"/><path class="cls-1" d="M690.34,14.11v2.45a1.38,1.38,0,0,1,1.29-.65c.84,0,1.47.46,1.47,1.69v3.06h-1.2V17.78c0-.5-.17-.86-.74-.86s-.82.4-.82,1.14v2.6h-1.22V14.11Z" transform="translate(-31.05 -8.5)"/><path class="cls-1" d="M693.76,21.71a7.49,7.49,0,0,0,.57-2.48h1.17a4.87,4.87,0,0,1-.8,2.48Z" transform="translate(-31.05 -8.5)"/><path class="cls-1" d="M698.64,14.49H701c1.35,0,2,.72,2,1.57a1.24,1.24,0,0,1-.75,1.24,1.54,1.54,0,0,1,1,1.49c0,1.19-.89,1.87-2.21,1.87h-2.35Zm2.18,2.43c.65,0,.95-.21.95-.73s-.35-.74-.89-.74h-1v1.47Zm-1,2.79h1a.89.89,0,0,0,1-.92c0-.6-.35-.92-1.11-.92h-.94Z" transform="translate(-31.05 -8.5)"/><path class="cls-1" d="M704,17.58c0-.77,0-1.26,0-1.58h1.19c0,.2,0,.5,0,.82a1.46,1.46,0,0,1,1.41-.9v1.24c-1,0-1.39.31-1.39,1.38v2.12H704Z" transform="translate(-31.05 -8.5)"/><path class="cls-1" d="M707.34,14.11h1.23v1.13h-1.23Zm0,1.89h1.23v4.66h-1.23Z" transform="translate(-31.05 -8.5)"/><path class="cls-1" d="M709.19,16h.66V14.73h1.21V16h.83V17h-.83v2.39c0,.32.08.45.46.45a1.42,1.42,0,0,0,.28,0v.85a2.67,2.67,0,0,1-.75.09c-.9,0-1.2-.37-1.2-1.23V17h-.66Z" transform="translate(-31.05 -8.5)"/><path class="cls-1" d="M712.1,16h.66V14.73H714V16h.83V17H714v2.39c0,.32.07.45.45.45a1.42,1.42,0,0,0,.28,0v.85a2.67,2.67,0,0,1-.75.09c-.9,0-1.2-.37-1.2-1.23V17h-.66Z" transform="translate(-31.05 -8.5)"/><path class="cls-1" d="M719.19,19.45c0,.32,0,.88.06,1.21h-1.07a3.57,3.57,0,0,1-.07-.56,1.6,1.6,0,0,1-2.87-.78c0-.84.58-1.53,2.2-1.53H718v-.34c0-.38-.12-.68-.67-.68a.61.61,0,0,0-.71.62h-1.19c.05-.73.49-1.48,1.92-1.48,1.1,0,1.85.38,1.85,1.53ZM718,18.57h-.57c-.83,0-1,.34-1,.65a.57.57,0,0,0,.65.59c.74,0,.91-.48.91-1.14Z" transform="translate(-31.05 -8.5)"/><path class="cls-1" d="M723.83,18.11v2.55H722.6V14.49h2.51c1.16,0,2,.58,2,1.67a1.42,1.42,0,0,1-1,1.44c.61.24.83.72.83,1.49v.16a10.86,10.86,0,0,0,.08,1.41h-1.21a4.9,4.9,0,0,1-.12-1.43v-.17c0-.7-.25-.95-1.06-.95Zm0-1h.94c.6,0,1.09-.16,1.09-.84s-.41-.78-.92-.78h-1.11Z" transform="translate(-31.05 -8.5)"/><path class="cls-1" d="M728.05,14.11h1.22v1.13h-1.22Zm0,1.89h1.22v4.66h-1.22Z" transform="translate(-31.05 -8.5)"/><path class="cls-1" d="M734.29,19a1.87,1.87,0,0,1-2,1.71c-1.42,0-2.09-.88-2.09-2.41a2.14,2.14,0,0,1,2.17-2.42,1.79,1.79,0,0,1,2,1.74h-1.22c-.05-.42-.24-.81-.77-.81s-.9.59-.9,1.45c0,1.09.33,1.52.88,1.52s.69-.34.8-.78Z" transform="translate(-31.05 -8.5)"/><path class="cls-1" d="M736.32,17.94c.34-.42.95-1.22,1.49-1.94h1.38c-.45.55-1,1.22-1.54,1.81.52.84,1.14,1.92,1.68,2.85h-1.41c-.31-.58-.75-1.42-1.07-2,0,0-.5.55-.53.57v1.47H735.1V14.11h1.22Z" transform="translate(-31.05 -8.5)"/><path class="cls-1" d="M740.67,18.61c0,.57.22,1.17.91,1.17a.76.76,0,0,0,.8-.55h1.2a2,2,0,0,1-2,1.51c-1.49,0-2.1-1-2.1-2.41a2.17,2.17,0,0,1,2.16-2.42c1.56,0,2,1.12,2,2.32,0,.06,0,.3,0,.38Zm1.77-.8c0-.53-.23-1-.86-1s-.87.56-.89,1Z" transform="translate(-31.05 -8.5)"/><path class="cls-1" d="M744.5,17.58c0-.77,0-1.26,0-1.58h1.19c0,.2,0,.5,0,.82a1.46,1.46,0,0,1,1.41-.9v1.24c-1,0-1.39.31-1.39,1.38v2.12H744.5Z" transform="translate(-31.05 -8.5)"/><path class="cls-1" d="M753.68,19.45a9.93,9.93,0,0,0,.07,1.21h-1.07a3.6,3.6,0,0,1-.08-.56,1.59,1.59,0,0,1-2.86-.78c0-.84.58-1.53,2.2-1.53h.54v-.34c0-.38-.11-.68-.66-.68a.62.62,0,0,0-.72.62h-1.18c.05-.73.49-1.48,1.92-1.48,1.1,0,1.84.38,1.84,1.53Zm-1.16-.88H752c-.84,0-1,.34-1,.65a.57.57,0,0,0,.65.59c.73,0,.9-.48.9-1.14Z" transform="translate(-31.05 -8.5)"/><path class="cls-1" d="M754.83,17.45c0-1,0-1.25,0-1.45H756a4,4,0,0,1,0,.6,1.41,1.41,0,0,1,1.3-.69c1,0,1.47.62,1.47,1.7v3.05H757.6V17.84c0-.53-.13-.92-.72-.92s-.82.32-.82,1.14v2.6h-1.23Z" transform="translate(-31.05 -8.5)"/><path class="cls-1" d="M764,14.11v5.25c0,.54,0,1,0,1.3h-1.2c0-.13,0-.4,0-.55a1.28,1.28,0,0,1-1.31.64c-1.18,0-1.8-1-1.8-2.41s.75-2.43,2-2.43c.69,0,1,.24,1.09.42V14.11Zm-3.08,4.18c0,.88.3,1.47,1,1.47s1-.55,1-1.46-.2-1.39-.91-1.39S760.92,17.37,760.92,18.29Z" transform="translate(-31.05 -8.5)"/><path class="cls-1" d="M772.53,18.36c0-1.05,0-2.31.05-3h-.05c-.28,1.28-.91,3.55-1.45,5.3H770c-.4-1.47-1-4.06-1.3-5.32h-.05c.06.72.08,2.06.08,3.12v2.2h-1.15V14.49h1.88c.44,1.44,1,3.59,1.16,4.53h0c.14-.8.84-3.07,1.3-4.53h1.81v6.17h-1.21Z" transform="translate(-31.05 -8.5)"/><path class="cls-1" d="M775.9,18.61c0,.57.21,1.17.91,1.17a.75.75,0,0,0,.79-.55h1.2a1.94,1.94,0,0,1-2,1.51c-1.49,0-2.11-1-2.11-2.41a2.17,2.17,0,0,1,2.16-2.42c1.56,0,2,1.12,2,2.32,0,.06,0,.3,0,.38Zm1.77-.8c0-.53-.24-1-.87-1s-.86.56-.89,1Z" transform="translate(-31.05 -8.5)"/><path class="cls-1" d="M779.73,17.45c0-1,0-1.25,0-1.45h1.19a3,3,0,0,1,0,.6,1.42,1.42,0,0,1,1.3-.69c1,0,1.47.62,1.47,1.7v3.05h-1.22V17.84c0-.53-.13-.92-.71-.92s-.83.32-.83,1.14v2.6h-1.22Z" transform="translate(-31.05 -8.5)"/><path class="cls-1" d="M784.87,17.45c0-1,0-1.25,0-1.45H786a4,4,0,0,1,0,.6,1.41,1.41,0,0,1,1.3-.69c1,0,1.47.62,1.47,1.7v3.05h-1.22V17.84c0-.53-.13-.92-.71-.92s-.83.32-.83,1.14v2.6h-1.22Z" transform="translate(-31.05 -8.5)"/><path class="cls-1" d="M794.16,18.26a2.18,2.18,0,0,1-2.24,2.49c-1.63,0-2.19-1.2-2.19-2.46A2.19,2.19,0,0,1,792,15.91,2.12,2.12,0,0,1,794.16,18.26Zm-3.19,0c0,1,.34,1.53,1,1.53s.95-.53.95-1.52-.32-1.4-1-1.4S791,17.41,791,18.26Z" transform="translate(-31.05 -8.5)"/><path class="cls-1" d="M799.44,18.73c0,1.3-.45,2-1.81,2a3.4,3.4,0,0,1-.71-.06v-1a3.74,3.74,0,0,0,.52,0c.64,0,.74-.38.74-1V14.49h1.26Z" transform="translate(-31.05 -8.5)"/><path class="cls-1" d="M804.24,19.45c0,.32,0,.88.06,1.21h-1.07a2.68,2.68,0,0,1-.07-.56,1.6,1.6,0,0,1-2.87-.78c0-.84.58-1.53,2.2-1.53H803v-.34c0-.38-.12-.68-.67-.68a.61.61,0,0,0-.71.62h-1.19c0-.73.49-1.48,1.92-1.48,1.1,0,1.85.38,1.85,1.53Zm-1.16-.88h-.57c-.84,0-1,.34-1,.65a.57.57,0,0,0,.65.59c.73,0,.91-.48.91-1.14Z" transform="translate(-31.05 -8.5)"/><path class="cls-1" d="M805.39,17.45c0-1,0-1.25,0-1.45h1.19a4,4,0,0,1,0,.6,1.41,1.41,0,0,1,1.3-.69c1,0,1.47.62,1.47,1.7v3.05h-1.22V17.84c0-.53-.13-.92-.71-.92s-.83.32-.83,1.14v2.6h-1.22Z" transform="translate(-31.05 -8.5)"/><path class="cls-1" d="M812.78,14.49H814v2.85c.66-.85,1.58-2,2.21-2.85h1.5L815.62,17l2.23,3.68h-1.5l-1.59-2.85-.74.82v2h-1.24Z" transform="translate(-31.05 -8.5)"/><path class="cls-1" d="M818.43,17.58c0-.77,0-1.26,0-1.58h1.19a6.46,6.46,0,0,1,0,.82,1.46,1.46,0,0,1,1.41-.9v1.24c-1,0-1.39.31-1.39,1.38v2.12h-1.22Z" transform="translate(-31.05 -8.5)"/><path class="cls-1" d="M825.3,19.45c0,.32,0,.88.06,1.21h-1.07a2.68,2.68,0,0,1-.07-.56,1.6,1.6,0,0,1-2.87-.78c0-.84.58-1.53,2.2-1.53h.55v-.34c0-.38-.12-.68-.67-.68a.61.61,0,0,0-.71.62h-1.19c.05-.73.49-1.48,1.92-1.48,1.1,0,1.85.38,1.85,1.53Zm-1.16-.88h-.57c-.84,0-1,.34-1,.65a.57.57,0,0,0,.65.59c.73,0,.91-.48.91-1.14Z" transform="translate(-31.05 -8.5)"/><path class="cls-1" d="M830,19.45c0,.32,0,.88.06,1.21H829a5.35,5.35,0,0,1-.07-.56,1.6,1.6,0,0,1-2.87-.78c0-.84.58-1.53,2.2-1.53h.55v-.34c0-.38-.12-.68-.67-.68a.61.61,0,0,0-.71.62h-1.19c.05-.73.49-1.48,1.92-1.48,1.1,0,1.85.38,1.85,1.53Zm-1.16-.88h-.57c-.83,0-1,.34-1,.65s.19.59.66.59c.73,0,.9-.48.9-1.14Z" transform="translate(-31.05 -8.5)"/><path class="cls-1" d="M832.41,17.94c.34-.42,1-1.22,1.49-1.94h1.39c-.46.55-1,1.22-1.55,1.81.52.84,1.14,1.92,1.68,2.85H834c-.31-.58-.75-1.42-1.07-2,0,0-.5.55-.53.57v1.47h-1.22V14.11h1.22Z" transform="translate(-31.05 -8.5)"/><path class="cls-1" d="M588.8,25.29h4v1H590v1.56h2.55v1H590v2.54H588.8Z" transform="translate(-31.05 -8.5)"/><path class="cls-1" d="M597.06,30.25c0,.32,0,.88.06,1.21h-1.07a5.35,5.35,0,0,1-.07-.56,1.6,1.6,0,0,1-2.87-.78c0-.84.59-1.53,2.2-1.53h.55v-.34c0-.38-.12-.68-.67-.68a.61.61,0,0,0-.71.62h-1.19c.05-.73.5-1.48,1.92-1.48,1.1,0,1.85.38,1.85,1.53Zm-1.16-.88h-.57c-.83,0-1,.34-1,.65s.19.59.66.59c.73,0,.9-.48.9-1.14Z" transform="translate(-31.05 -8.5)"/><path class="cls-1" d="M602.07,29.83a1.86,1.86,0,0,1-2,1.71c-1.43,0-2.1-.88-2.1-2.41a2.14,2.14,0,0,1,2.17-2.42,1.79,1.79,0,0,1,2,1.74h-1.22c0-.42-.24-.81-.76-.81s-.91.59-.91,1.45c0,1.09.33,1.52.88,1.52s.7-.34.8-.78Z" transform="translate(-31.05 -8.5)"/><path class="cls-1" d="M606.76,30.08c0,.67,0,1.14,0,1.38h-1.19a3.86,3.86,0,0,1-.05-.56,1.31,1.31,0,0,1-1.28.64c-.93,0-1.44-.58-1.44-1.63V26.8H604v2.9c0,.49.17.83.67.83s.82-.31.82-1.13V26.8h1.23Z" transform="translate(-31.05 -8.5)"/><path class="cls-1" d="M607.91,31.46V24.91h1.23v6.55Z" transform="translate(-31.05 -8.5)"/><path class="cls-1" d="M609.76,26.8h.66V25.53h1.21V26.8h.83v.95h-.83v2.39c0,.32.08.45.46.45a1.42,1.42,0,0,0,.28,0v.85a2.67,2.67,0,0,1-.75.09c-.9,0-1.2-.37-1.2-1.23V27.75h-.66Z" transform="translate(-31.05 -8.5)"/><path class="cls-1" d="M614.2,26.8c.54,2,.86,3.06.93,3.6h0c.13-.58.55-2.2.94-3.6h1.22l-1.58,4.86c-.49,1.49-1.07,1.67-1.86,1.67a3.14,3.14,0,0,1-.47,0v-1a3.46,3.46,0,0,0,.43,0c.39,0,.59-.25.71-.64L612.9,26.8Z" transform="translate(-31.05 -8.5)"/><path class="cls-1" d="M624.53,29.06c0,1.36-.65,2.49-2.24,2.49s-2.19-1.2-2.19-2.46a2.19,2.19,0,0,1,2.25-2.38A2.11,2.11,0,0,1,624.53,29.06Zm-3.19,0c0,1,.35,1.53,1,1.53s.95-.53.95-1.52-.32-1.4-1-1.4S621.34,28.21,621.34,29.06Z" transform="translate(-31.05 -8.5)"/><path class="cls-1" d="M625.55,31.46V27.75h-.64V26.8h.64v-.43A1.33,1.33,0,0,1,627,24.85a2.17,2.17,0,0,1,.52.07v1a1.58,1.58,0,0,0-.32,0c-.32,0-.42.22-.42.54v.4h.77v.95h-.77v3.71Z" transform="translate(-31.05 -8.5)"/><path class="cls-1" d="M635.22,31.46h-.93a5.24,5.24,0,0,1-.09-.72,1.72,1.72,0,0,1-1.71.81c-1.62,0-2.47-1.34-2.47-3.14s1-3.2,2.82-3.2a2.17,2.17,0,0,1,2.39,1.85H634a1.1,1.1,0,0,0-1.22-.84c-1.07,0-1.45,1-1.45,2.2s.41,2.13,1.45,2.13,1.2-.65,1.2-1.44v0h-1.29V28h2.54Z" transform="translate(-31.05 -8.5)"/><path class="cls-1" d="M637.37,29.41c0,.57.22,1.17.91,1.17a.74.74,0,0,0,.79-.55h1.2a1.94,1.94,0,0,1-2,1.51c-1.49,0-2.1-1-2.1-2.41a2.16,2.16,0,0,1,2.15-2.42c1.57,0,2,1.12,2,2.32,0,.06,0,.3,0,.38Zm1.77-.8c0-.53-.23-1-.86-1s-.87.56-.89,1Z" transform="translate(-31.05 -8.5)"/><path class="cls-1" d="M645.41,29.06c0,1.36-.65,2.49-2.23,2.49S641,30.35,641,29.09a2.19,2.19,0,0,1,2.25-2.38A2.11,2.11,0,0,1,645.41,29.06Zm-3.18,0c0,1,.34,1.53,1,1.53s.95-.53.95-1.52-.32-1.4-1-1.4S642.23,28.21,642.23,29.06Z" transform="translate(-31.05 -8.5)"/><path class="cls-1" d="M646.29,24.91h1.22V26h-1.22Zm0,1.89h1.22v4.66h-1.22Z" transform="translate(-31.05 -8.5)"/><path class="cls-1" d="M648.66,28.25c0-1,0-1.25,0-1.45h1.19c0,.08,0,.38,0,.6a1.41,1.41,0,0,1,1.3-.69c1,0,1.47.62,1.47,1.7v3.05h-1.23V28.64c0-.53-.13-.92-.71-.92s-.82.32-.82,1.14v2.6h-1.23Z" transform="translate(-31.05 -8.5)"/><path class="cls-1" d="M653.93,31.46V27.75h-.63V26.8h.63v-.43a1.33,1.33,0,0,1,1.44-1.52,2.25,2.25,0,0,1,.52.07v1a1.58,1.58,0,0,0-.32,0c-.33,0-.42.22-.42.54v.4h.77v.95h-.77v3.71Z" transform="translate(-31.05 -8.5)"/><path class="cls-1" d="M660.65,29.06c0,1.36-.65,2.49-2.23,2.49s-2.2-1.2-2.2-2.46a2.2,2.2,0,0,1,2.26-2.38A2.11,2.11,0,0,1,660.65,29.06Zm-3.18,0c0,1,.34,1.53,1,1.53s1-.53,1-1.52-.32-1.4-1-1.4S657.47,28.21,657.47,29.06Z" transform="translate(-31.05 -8.5)"/><path class="cls-1" d="M661.52,28.38c0-.77,0-1.26,0-1.58h1.19c0,.2,0,.5,0,.82a1.46,1.46,0,0,1,1.41-.9V28c-1,0-1.39.31-1.39,1.38v2.12h-1.23Z" transform="translate(-31.05 -8.5)"/><path class="cls-1" d="M664.82,28.24c0-.92,0-1.23,0-1.44H666a4.89,4.89,0,0,1,0,.55,1.44,1.44,0,0,1,1.29-.64,1.15,1.15,0,0,1,1.16.72,1.58,1.58,0,0,1,1.4-.72,1.41,1.41,0,0,1,1.48,1.62v3.13h-1.2V28.53c0-.42-.15-.82-.67-.82s-.79.4-.79,1.1v2.65h-1.2v-3c0-.42-.2-.78-.67-.78s-.8.32-.8,1.14v2.6h-1.21Z" transform="translate(-31.05 -8.5)"/><path class="cls-1" d="M676.14,30.25a9.93,9.93,0,0,0,.07,1.21h-1.08a5.35,5.35,0,0,1-.07-.56,1.59,1.59,0,0,1-2.86-.78c0-.84.58-1.53,2.19-1.53h.55v-.34c0-.38-.12-.68-.66-.68s-.68.28-.72.62h-1.18c0-.73.49-1.48,1.91-1.48,1.11,0,1.85.38,1.85,1.53ZM675,29.37h-.56c-.84,0-1,.34-1,.65s.19.59.66.59c.73,0,.9-.48.9-1.14Z" transform="translate(-31.05 -8.5)"/><path class="cls-1" d="M676.69,26.8h.66V25.53h1.21V26.8h.83v.95h-.83v2.39c0,.32.08.45.46.45a1.42,1.42,0,0,0,.28,0v.85a2.67,2.67,0,0,1-.75.09c-.9,0-1.2-.37-1.2-1.23V27.75h-.66Z" transform="translate(-31.05 -8.5)"/><path class="cls-1" d="M680.11,24.91h1.22V26h-1.22Zm0,1.89h1.22v4.66h-1.22Z" transform="translate(-31.05 -8.5)"/><path class="cls-1" d="M686.63,29.06c0,1.36-.65,2.49-2.23,2.49s-2.19-1.2-2.19-2.46a2.19,2.19,0,0,1,2.25-2.38A2.11,2.11,0,0,1,686.63,29.06Zm-3.18,0c0,1,.34,1.53,1,1.53s.95-.53.95-1.52-.32-1.4-1-1.4S683.45,28.21,683.45,29.06Z" transform="translate(-31.05 -8.5)"/><path class="cls-1" d="M687.51,28.25c0-1,0-1.25,0-1.45h1.19a4,4,0,0,1,0,.6,1.41,1.41,0,0,1,1.3-.69c1,0,1.47.62,1.47,1.7v3.05h-1.22V28.64c0-.53-.13-.92-.71-.92s-.83.32-.83,1.14v2.6h-1.22Z" transform="translate(-31.05 -8.5)"/><path class="cls-1" d="M695.77,29.64a1,1,0,0,0,1.11.92c.7,0,1-.3,1-.74s-.34-.79-1.23-1c-1.43-.4-1.92-.91-1.92-1.8,0-1.15.91-1.77,2.09-1.77,1.48,0,2.11.77,2.18,1.76h-1.24a.85.85,0,0,0-1-.8c-.55,0-.83.26-.83.68s.31.6,1.19.85c1.57.46,2,1.09,2,2s-.66,1.87-2.28,1.87a2,2,0,0,1-2.29-1.9Z" transform="translate(-31.05 -8.5)"/><path class="cls-1" d="M703.88,29.83a1.87,1.87,0,0,1-2,1.71c-1.42,0-2.09-.88-2.09-2.41a2.14,2.14,0,0,1,2.17-2.42,1.79,1.79,0,0,1,2,1.74h-1.22c0-.42-.24-.81-.77-.81s-.9.59-.9,1.45c0,1.09.33,1.52.88,1.52s.69-.34.8-.78Z" transform="translate(-31.05 -8.5)"/><path class="cls-1" d="M704.69,24.91h1.22V26h-1.22Zm0,1.89h1.22v4.66h-1.22Z" transform="translate(-31.05 -8.5)"/><path class="cls-1" d="M708,29.41c0,.57.22,1.17.91,1.17a.74.74,0,0,0,.79-.55h1.2a1.94,1.94,0,0,1-2,1.51c-1.49,0-2.11-1-2.11-2.41A2.17,2.17,0,0,1,709,26.71c1.57,0,2,1.12,2,2.32,0,.06,0,.3,0,.38Zm1.77-.8c0-.53-.23-1-.86-1s-.87.56-.89,1Z" transform="translate(-31.05 -8.5)"/><path class="cls-1" d="M711.86,28.25c0-1,0-1.25,0-1.45H713a3.72,3.72,0,0,1,.05.6,1.41,1.41,0,0,1,1.29-.69c1,0,1.48.62,1.48,1.7v3.05h-1.23V28.64c0-.53-.13-.92-.71-.92s-.83.32-.83,1.14v2.6h-1.22Z" transform="translate(-31.05 -8.5)"/><path class="cls-1" d="M720.86,29.83a1.87,1.87,0,0,1-2,1.71c-1.43,0-2.1-.88-2.1-2.41a2.14,2.14,0,0,1,2.17-2.42,1.79,1.79,0,0,1,2,1.74h-1.22c0-.42-.24-.81-.76-.81s-.91.59-.91,1.45c0,1.09.33,1.52.88,1.52s.7-.34.8-.78Z" transform="translate(-31.05 -8.5)"/><path class="cls-1" d="M722.69,29.41c0,.57.22,1.17.91,1.17a.74.74,0,0,0,.79-.55h1.2a1.94,1.94,0,0,1-2,1.51c-1.49,0-2.1-1-2.1-2.41a2.16,2.16,0,0,1,2.15-2.42c1.57,0,2,1.12,2,2.32,0,.06,0,.3,0,.38Zm1.77-.8c0-.53-.23-1-.86-1s-.87.56-.89,1Z" transform="translate(-31.05 -8.5)"/><path class="cls-1" d="M732.37,30.25a9.93,9.93,0,0,0,.07,1.21h-1.08a5.35,5.35,0,0,1-.07-.56,1.59,1.59,0,0,1-2.86-.78c0-.84.58-1.53,2.2-1.53h.54v-.34c0-.38-.12-.68-.66-.68a.62.62,0,0,0-.72.62h-1.18c0-.73.49-1.48,1.92-1.48,1.1,0,1.84.38,1.84,1.53Zm-1.16-.88h-.56c-.84,0-1,.34-1,.65s.19.59.66.59c.73,0,.9-.48.9-1.14Z" transform="translate(-31.05 -8.5)"/><path class="cls-1" d="M733.52,28.25c0-1,0-1.25,0-1.45h1.19c0,.08,0,.38,0,.6a1.41,1.41,0,0,1,1.3-.69c1,0,1.47.62,1.47,1.7v3.05h-1.22V28.64c0-.53-.13-.92-.72-.92s-.82.32-.82,1.14v2.6h-1.23Z" transform="translate(-31.05 -8.5)"/><path class="cls-1" d="M742.69,24.91v5.25c0,.54,0,1,0,1.3h-1.2c0-.13,0-.4,0-.55a1.29,1.29,0,0,1-1.31.64c-1.18,0-1.8-1-1.8-2.41s.75-2.43,2-2.43c.69,0,1,.24,1.09.42V24.91Zm-3.08,4.18c0,.88.3,1.47,1,1.47s.95-.55.95-1.45-.2-1.4-.91-1.4S739.61,28.17,739.61,29.09Z" transform="translate(-31.05 -8.5)"/><path class="cls-1" d="M750.17,28.77h-2.68v1.66h3l-.15,1h-4V25.29h4v1h-2.8v1.4h2.68Z" transform="translate(-31.05 -8.5)"/><path class="cls-1" d="M755,30.25c0,.32,0,.88.06,1.21H754a3.57,3.57,0,0,1-.07-.56,1.6,1.6,0,0,1-2.87-.78c0-.84.58-1.53,2.2-1.53h.55v-.34c0-.38-.12-.68-.67-.68a.61.61,0,0,0-.71.62h-1.19c0-.73.49-1.48,1.92-1.48,1.1,0,1.85.38,1.85,1.53Zm-1.16-.88h-.57c-.83,0-1,.34-1,.65a.57.57,0,0,0,.65.59c.74,0,.91-.48.91-1.14Z" transform="translate(-31.05 -8.5)"/><path class="cls-1" d="M756.16,28.38c0-.77,0-1.26,0-1.58h1.19a6.21,6.21,0,0,1,0,.82,1.44,1.44,0,0,1,1.41-.9V28c-1,0-1.4.31-1.4,1.38v2.12h-1.22Z" transform="translate(-31.05 -8.5)"/><path class="cls-1" d="M759.24,26.8h.65V25.53h1.22V26.8h.83v.95h-.83v2.39c0,.32.08.45.46.45a1.27,1.27,0,0,0,.27,0v.85a2.61,2.61,0,0,1-.74.09c-.9,0-1.21-.37-1.21-1.23V27.75h-.65Z" transform="translate(-31.05 -8.5)"/><path class="cls-1" d="M763.82,24.91v2.45a1.37,1.37,0,0,1,1.29-.65c.83,0,1.47.46,1.47,1.69v3.06h-1.21V28.58c0-.5-.16-.86-.73-.86s-.82.4-.82,1.14v2.6h-1.23V24.91Z" transform="translate(-31.05 -8.5)"/><path class="cls-1" d="M775.22,28.35c0,1.77-.86,3.2-2.8,3.2s-2.72-1.47-2.72-3.22a2.83,2.83,0,0,1,2.81-3.12C774.37,25.21,775.22,26.69,775.22,28.35Zm-4.22,0c0,1.23.49,2.21,1.47,2.21s1.46-.91,1.46-2.2-.38-2.14-1.48-2.14S771,27.15,771,28.34Z" transform="translate(-31.05 -8.5)"/><path class="cls-1" d="M776.13,24.91h1.22v2.4a1.41,1.41,0,0,1,1.29-.6c1.2,0,1.8,1,1.8,2.27,0,1.49-.67,2.56-2,2.56a1.19,1.19,0,0,1-1.13-.53c0,.15,0,.3,0,.45h-1.19c0-.31,0-.95,0-1.42ZM779.2,29c0-.77-.28-1.32-1-1.32s-1,.49-1,1.39.24,1.46,1,1.46S779.2,30,779.2,29Z" transform="translate(-31.05 -8.5)"/><path class="cls-1" d="M782.18,30a.71.71,0,0,0,.8.62c.43,0,.66-.16.66-.46s-.27-.42-1-.62c-1.24-.35-1.53-.79-1.53-1.45s.37-1.41,1.78-1.41c1.23,0,1.75.63,1.81,1.42h-1.19a.59.59,0,0,0-.68-.54c-.33,0-.52.15-.52.41s.18.37.85.54c1.28.33,1.66.79,1.66,1.54,0,1-.8,1.46-1.9,1.46S781.08,31,781,30Z" transform="translate(-31.05 -8.5)"/><path class="cls-1" d="M786.68,29.41c0,.57.22,1.17.91,1.17a.74.74,0,0,0,.79-.55h1.2a1.94,1.94,0,0,1-2,1.51c-1.49,0-2.11-1-2.11-2.41a2.17,2.17,0,0,1,2.16-2.42c1.57,0,2,1.12,2,2.32,0,.06,0,.3,0,.38Zm1.77-.8c0-.53-.23-1-.86-1s-.87.56-.89,1Z" transform="translate(-31.05 -8.5)"/><path class="cls-1" d="M790.51,28.38c0-.77,0-1.26,0-1.58h1.19a6.21,6.21,0,0,1,0,.82,1.45,1.45,0,0,1,1.41-.9V28c-1,0-1.4.31-1.4,1.38v2.12h-1.22Z" transform="translate(-31.05 -8.5)"/><path class="cls-1" d="M794.88,26.8c.45,1.6.78,2.72.91,3.48h0c.12-.72.51-1.9,1-3.48H798l-1.58,4.66h-1.27l-1.54-4.66Z" transform="translate(-31.05 -8.5)"/><path class="cls-1" d="M802.11,30.25a9.93,9.93,0,0,0,.07,1.21H801.1a5.35,5.35,0,0,1-.07-.56,1.59,1.59,0,0,1-2.86-.78c0-.84.58-1.53,2.2-1.53h.54v-.34c0-.38-.12-.68-.66-.68a.62.62,0,0,0-.72.62h-1.18c0-.73.49-1.48,1.92-1.48,1.1,0,1.84.38,1.84,1.53ZM801,29.37h-.56c-.84,0-1,.34-1,.65s.19.59.66.59c.73,0,.9-.48.9-1.14Z" transform="translate(-31.05 -8.5)"/><path class="cls-1" d="M802.66,26.8h.66V25.53h1.22V26.8h.83v.95h-.83v2.39c0,.32.07.45.45.45a1.42,1.42,0,0,0,.28,0v.85a2.67,2.67,0,0,1-.75.09c-.9,0-1.2-.37-1.2-1.23V27.75h-.66Z" transform="translate(-31.05 -8.5)"/><path class="cls-1" d="M806.08,24.91h1.22V26h-1.22Zm0,1.89h1.22v4.66h-1.22Z" transform="translate(-31.05 -8.5)"/><path class="cls-1" d="M812.61,29.06c0,1.36-.65,2.49-2.24,2.49s-2.19-1.2-2.19-2.46a2.19,2.19,0,0,1,2.25-2.38A2.12,2.12,0,0,1,812.61,29.06Zm-3.19,0c0,1,.34,1.53,1,1.53s1-.53,1-1.52-.32-1.4-1-1.4S809.42,28.21,809.42,29.06Z" transform="translate(-31.05 -8.5)"/><path class="cls-1" d="M813.48,28.25c0-1,0-1.25,0-1.45h1.19a3,3,0,0,1,0,.6,1.42,1.42,0,0,1,1.3-.69c1,0,1.47.62,1.47,1.7v3.05h-1.22V28.64c0-.53-.13-.92-.71-.92s-.83.32-.83,1.14v2.6h-1.22Z" transform="translate(-31.05 -8.5)"/><path class="cls-1" d="M590,36.09V40c0,.7.19,1.34,1.14,1.34s1.12-.61,1.12-1.34V36.09h1.26V40c0,1.29-.54,2.31-2.41,2.31s-2.37-1-2.37-2.3v-4Z" transform="translate(-31.05 -8.5)"/><path class="cls-1" d="M594.56,39.05c0-1,0-1.25,0-1.45h1.19a4,4,0,0,1,0,.6,1.41,1.41,0,0,1,1.3-.69c1,0,1.47.62,1.47,1.7v3h-1.22V39.44c0-.53-.13-.92-.71-.92s-.83.32-.83,1.14v2.6h-1.22Z" transform="translate(-31.05 -8.5)"/><path class="cls-1" d="M599.7,35.71h1.22v1.13H599.7Zm0,1.89h1.22v4.66H599.7Z" transform="translate(-31.05 -8.5)"/><path class="cls-1" d="M602.85,37.6c.46,1.6.79,2.72.92,3.48h0c.12-.72.51-1.9,1-3.48h1.2l-1.58,4.66h-1.28l-1.53-4.66Z" transform="translate(-31.05 -8.5)"/><path class="cls-1" d="M607.47,40.21c0,.57.22,1.17.91,1.17a.76.76,0,0,0,.8-.55h1.2a2,2,0,0,1-2,1.51c-1.49,0-2.11-1-2.11-2.41a2.17,2.17,0,0,1,2.16-2.42c1.56,0,2,1.12,2,2.32,0,.06,0,.3,0,.38Zm1.77-.8c0-.53-.23-1-.86-1s-.87.56-.89,1Z" transform="translate(-31.05 -8.5)"/><path class="cls-1" d="M611.3,39.18c0-.77,0-1.26,0-1.58h1.19c0,.2,0,.5,0,.82a1.46,1.46,0,0,1,1.41-.9v1.24c-1,0-1.39.31-1.39,1.38v2.12H611.3Z" transform="translate(-31.05 -8.5)"/><path class="cls-1" d="M615.53,40.83a.72.72,0,0,0,.8.62c.44,0,.67-.16.67-.46s-.27-.42-1-.62c-1.24-.35-1.53-.79-1.53-1.45s.37-1.41,1.77-1.41c1.24,0,1.76.63,1.82,1.42h-1.2a.58.58,0,0,0-.67-.54c-.33,0-.52.15-.52.41s.18.37.85.54c1.27.33,1.66.79,1.66,1.54,0,.95-.8,1.46-1.9,1.46s-1.86-.51-2-1.51Z" transform="translate(-31.05 -8.5)"/><path class="cls-1" d="M619,35.71h1.22v1.13H619Zm0,1.89h1.22v4.66H619Z" transform="translate(-31.05 -8.5)"/><path class="cls-1" d="M620.86,37.6h.66V36.33h1.22V37.6h.83v.95h-.83v2.39c0,.32.07.45.45.45a1.42,1.42,0,0,0,.28,0v.85a2.67,2.67,0,0,1-.75.09c-.9,0-1.2-.37-1.2-1.23V38.55h-.66Z" transform="translate(-31.05 -8.5)"/><path class="cls-1" d="M625.3,37.6c.55,2,.86,3.06.94,3.6h0c.12-.58.54-2.2.93-3.6h1.23l-1.59,4.86c-.49,1.5-1.06,1.67-1.85,1.67a3,3,0,0,1-.47-.05v-1a3.19,3.19,0,0,0,.42,0c.39,0,.6-.25.71-.64L624,37.6Z" transform="translate(-31.05 -8.5)"/><path class="cls-1" d="M635.63,39.86c0,1.36-.65,2.49-2.23,2.49s-2.19-1.2-2.19-2.46a2.19,2.19,0,0,1,2.25-2.38A2.11,2.11,0,0,1,635.63,39.86Zm-3.18,0c0,1,.34,1.53,1,1.53s1-.53,1-1.52-.32-1.4-1-1.4S632.45,39,632.45,39.86Z" transform="translate(-31.05 -8.5)"/><path class="cls-1" d="M636.66,42.26V38.55H636V37.6h.64v-.43a1.33,1.33,0,0,1,1.43-1.52,2.25,2.25,0,0,1,.52.07v1a1.58,1.58,0,0,0-.32,0c-.33,0-.42.22-.42.54v.4h.77v.95h-.77v3.71Z" transform="translate(-31.05 -8.5)"/><path class="cls-1" d="M642.57,37.13H640.9v-1h4.61v1h-1.67v5.13h-1.27Z" transform="translate(-31.05 -8.5)"/><path class="cls-1" d="M646.78,37.6c.39,1.79.62,2.83.71,3.38h0c.11-.55.41-1.71.81-3.38h1.1c.36,1.39.72,2.83.78,3.35h0c.09-.47.26-1.2.75-3.35h1.21l-1.38,4.66h-1.23c-.34-1.42-.62-2.42-.73-3.08h0c-.12.68-.47,1.93-.8,3.08h-1.23l-1.32-4.66Z" transform="translate(-31.05 -8.5)"/><path class="cls-1" d="M653.72,40.21c0,.57.22,1.17.91,1.17a.76.76,0,0,0,.8-.55h1.2a2,2,0,0,1-2,1.51c-1.49,0-2.11-1-2.11-2.41a2.17,2.17,0,0,1,2.16-2.42c1.56,0,2,1.12,2,2.32,0,.06,0,.3,0,.38Zm1.77-.8c0-.53-.23-1-.86-1s-.87.56-.89,1Z" transform="translate(-31.05 -8.5)"/><path class="cls-1" d="M657.55,39.05c0-1,0-1.25,0-1.45h1.19a4,4,0,0,1,0,.6,1.41,1.41,0,0,1,1.3-.69c1,0,1.47.62,1.47,1.7v3h-1.22V39.44c0-.53-.13-.92-.71-.92s-.83.32-.83,1.14v2.6h-1.23Z" transform="translate(-31.05 -8.5)"/><path class="cls-1" d="M662.16,37.6h.65V36.33H664V37.6h.83v.95H664v2.39c0,.32.08.45.46.45a1.32,1.32,0,0,0,.27,0v.85a2.63,2.63,0,0,1-.75.09c-.9,0-1.2-.37-1.2-1.23V38.55h-.65Z" transform="translate(-31.05 -8.5)"/><path class="cls-1" d="M666.47,40.21c0,.57.22,1.17.91,1.17a.76.76,0,0,0,.8-.55h1.2a2,2,0,0,1-2,1.51c-1.49,0-2.11-1-2.11-2.41a2.17,2.17,0,0,1,2.16-2.42c1.56,0,2,1.12,2,2.32,0,.06,0,.3,0,.38Zm1.77-.8c0-.53-.23-1-.86-1s-.86.56-.89,1Z" transform="translate(-31.05 -8.5)"/><path class="cls-1" d="M669.75,43.31a7.49,7.49,0,0,0,.57-2.48h1.17a4.87,4.87,0,0,1-.8,2.48Z" transform="translate(-31.05 -8.5)"/><path class="cls-1" d="M678.54,39.57h-2.69v1.66h3l-.15,1h-4V36.09h4v1h-2.8v1.4h2.69Z" transform="translate(-31.05 -8.5)"/><path class="cls-1" d="M679.57,39.05c0-1,0-1.25,0-1.45h1.19a3.72,3.72,0,0,1,0,.6,1.39,1.39,0,0,1,1.29-.69c1,0,1.48.62,1.48,1.7v3h-1.23V39.44c0-.53-.13-.92-.71-.92s-.83.32-.83,1.14v2.6h-1.22Z" transform="translate(-31.05 -8.5)"/><path class="cls-1" d="M685.52,40.83a.71.71,0,0,0,.8.62c.43,0,.66-.16.66-.46s-.27-.42-1-.62c-1.24-.35-1.53-.79-1.53-1.45s.37-1.41,1.78-1.41c1.24,0,1.75.63,1.81,1.42h-1.19a.59.59,0,0,0-.68-.54c-.33,0-.52.15-.52.41s.18.37.86.54c1.27.33,1.65.79,1.65,1.54,0,.95-.8,1.46-1.9,1.46s-1.86-.51-1.95-1.51Z" transform="translate(-31.05 -8.5)"/><path class="cls-1" d="M692.92,40.63a1.87,1.87,0,0,1-2,1.71c-1.42,0-2.09-.88-2.09-2.41A2.14,2.14,0,0,1,691,37.51a1.77,1.77,0,0,1,1.95,1.74H691.7c-.05-.42-.24-.81-.77-.81s-.9.59-.9,1.45c0,1.09.33,1.52.88,1.52s.69-.34.8-.78Z" transform="translate(-31.05 -8.5)"/><path class="cls-1" d="M695,35.71v2.45a1.38,1.38,0,0,1,1.29-.65c.84,0,1.47.46,1.47,1.69v3.06H696.5V39.38c0-.5-.16-.86-.73-.86s-.82.4-.82,1.14v2.6h-1.22V35.71Z" transform="translate(-31.05 -8.5)"/><path class="cls-1" d="M699.83,40.21c0,.57.22,1.17.91,1.17a.74.74,0,0,0,.79-.55h1.2a1.94,1.94,0,0,1-2,1.51c-1.49,0-2.1-1-2.1-2.41a2.16,2.16,0,0,1,2.15-2.42c1.57,0,2,1.12,2,2.32,0,.06,0,.3,0,.38Zm1.77-.8c0-.53-.23-1-.86-1s-.87.56-.89,1Z" transform="translate(-31.05 -8.5)"/><path class="cls-1" d="M707.75,35.71V41c0,.54,0,1,0,1.3h-1.19a4.68,4.68,0,0,1-.05-.55,1.26,1.26,0,0,1-1.3.64c-1.19,0-1.81-1-1.81-2.41s.75-2.43,2-2.43c.69,0,1,.24,1.1.42V35.71Zm-3.08,4.18c0,.88.3,1.47,1,1.47s1-.55,1-1.46-.2-1.39-.91-1.39S704.67,39,704.67,39.89Z" transform="translate(-31.05 -8.5)"/><path class="cls-1" d="M709.9,40.21c0,.57.22,1.17.91,1.17a.74.74,0,0,0,.79-.55h1.2a1.94,1.94,0,0,1-2,1.51c-1.49,0-2.1-1-2.1-2.41a2.17,2.17,0,0,1,2.16-2.42c1.56,0,2,1.12,2,2.32,0,.06,0,.3,0,.38Zm1.77-.8c0-.53-.23-1-.86-1s-.87.56-.89,1Z" transform="translate(-31.05 -8.5)"/><path class="cls-1" d="M713.17,43.31a7.45,7.45,0,0,0,.58-2.48h1.16a4.69,4.69,0,0,1-.8,2.48Z" transform="translate(-31.05 -8.5)"/><path class="cls-1" d="M719.22,37.13h-1.67v-1h4.61v1h-1.68v5.13h-1.26Z" transform="translate(-31.05 -8.5)"/><path class="cls-1" d="M724,35.71v2.45a1.38,1.38,0,0,1,1.29-.65c.84,0,1.47.46,1.47,1.69v3.06h-1.21V39.38c0-.5-.16-.86-.73-.86s-.82.4-.82,1.14v2.6h-1.22V35.71Z" transform="translate(-31.05 -8.5)"/><path class="cls-1" d="M728.89,40.21c0,.57.22,1.17.91,1.17a.74.74,0,0,0,.79-.55h1.2a1.94,1.94,0,0,1-2,1.51c-1.49,0-2.1-1-2.1-2.41a2.17,2.17,0,0,1,2.16-2.42c1.56,0,2,1.12,2,2.32,0,.06,0,.3,0,.38Zm1.77-.8c0-.53-.23-1-.86-1s-.87.56-.89,1Z" transform="translate(-31.05 -8.5)"/><path class="cls-1" d="M735,42.26V36.09h1.61c1.83,3.76,2.12,4.37,2.22,4.66h0c-.07-.73-.08-1.74-.08-2.75V36.09h1.15v6.17h-1.54c-2-4.14-2.18-4.63-2.27-4.86h0c0,.78,0,1.85,0,3v1.91Z" transform="translate(-31.05 -8.5)"/><path class="cls-1" d="M742.06,40.21c0,.57.21,1.17.91,1.17a.74.74,0,0,0,.79-.55H745a1.94,1.94,0,0,1-2,1.51c-1.49,0-2.11-1-2.11-2.41A2.17,2.17,0,0,1,743,37.51c1.57,0,2,1.12,2,2.32,0,.06,0,.3,0,.38Zm1.77-.8c0-.53-.23-1-.87-1s-.86.56-.88,1Z" transform="translate(-31.05 -8.5)"/><path class="cls-1" d="M745.41,37.6h.65V36.33h1.22V37.6h.83v.95h-.83v2.39c0,.32.07.45.45.45a1.37,1.37,0,0,0,.28,0v.85a2.67,2.67,0,0,1-.75.09c-.9,0-1.2-.37-1.2-1.23V38.55h-.65Z" transform="translate(-31.05 -8.5)"/><path class="cls-1" d="M750,35.71v2.45a1.39,1.39,0,0,1,1.3-.65c.83,0,1.47.46,1.47,1.69v3.06h-1.21V39.38c0-.5-.16-.86-.73-.86s-.83.4-.83,1.14v2.6h-1.22V35.71Z" transform="translate(-31.05 -8.5)"/><path class="cls-1" d="M754.86,40.21c0,.57.22,1.17.91,1.17a.76.76,0,0,0,.8-.55h1.2a2,2,0,0,1-2,1.51c-1.49,0-2.11-1-2.11-2.41a2.17,2.17,0,0,1,2.16-2.42c1.56,0,2,1.12,2,2.32,0,.06,0,.3,0,.38Zm1.77-.8c0-.53-.23-1-.86-1s-.87.56-.89,1Z" transform="translate(-31.05 -8.5)"/><path class="cls-1" d="M758.7,39.18c0-.77,0-1.26,0-1.58h1.19a6.46,6.46,0,0,1,0,.82,1.46,1.46,0,0,1,1.41-.9v1.24c-1,0-1.39.31-1.39,1.38v2.12H758.7Z" transform="translate(-31.05 -8.5)"/><path class="cls-1" d="M762,42.26V35.71h1.22v6.55Z" transform="translate(-31.05 -8.5)"/><path class="cls-1" d="M768.05,41.05c0,.32,0,.88.06,1.21H767a3.57,3.57,0,0,1-.07-.56,1.6,1.6,0,0,1-2.87-.78c0-.84.58-1.53,2.2-1.53h.55v-.34c0-.38-.12-.68-.67-.68a.61.61,0,0,0-.71.62h-1.19c.05-.74.49-1.48,1.92-1.48,1.1,0,1.85.38,1.85,1.53Zm-1.16-.88h-.57c-.83,0-1,.34-1,.65s.19.59.66.59c.73,0,.9-.48.9-1.14Z" transform="translate(-31.05 -8.5)"/><path class="cls-1" d="M769.2,39.05c0-1,0-1.25,0-1.45h1.19a3.72,3.72,0,0,1,0,.6,1.39,1.39,0,0,1,1.29-.69c1,0,1.48.62,1.48,1.7v3H772V39.44c0-.53-.13-.92-.71-.92s-.83.32-.83,1.14v2.6H769.2Z" transform="translate(-31.05 -8.5)"/><path class="cls-1" d="M778.36,35.71V41c0,.54,0,1,0,1.3h-1.19a4.74,4.74,0,0,1,0-.55,1.28,1.28,0,0,1-1.31.64c-1.19,0-1.8-1-1.8-2.41s.75-2.43,2-2.43c.7,0,1,.24,1.1.42V35.71Zm-3.07,4.18c0,.88.29,1.47,1,1.47s1-.55,1-1.46-.2-1.39-.92-1.39S775.29,39,775.29,39.89Z" transform="translate(-31.05 -8.5)"/><path class="cls-1" d="M780.33,40.83a.71.71,0,0,0,.8.62c.43,0,.66-.16.66-.46s-.26-.42-1-.62c-1.24-.35-1.53-.79-1.53-1.45s.37-1.41,1.77-1.41c1.24,0,1.76.63,1.81,1.42h-1.19c0-.26-.18-.54-.68-.54-.33,0-.52.15-.52.41s.19.37.86.54c1.27.33,1.66.79,1.66,1.54,0,.95-.8,1.46-1.9,1.46s-1.86-.51-2-1.51Z" transform="translate(-31.05 -8.5)"/><path class="cls-1" d="M589.25,51.3a1.33,1.33,0,0,0,1.44,1.2c.76,0,1.26-.39,1.26-1.07s-.33-1-1.45-1.32c-1.32-.4-1.84-.83-1.84-1.72s.77-1.62,2-1.62a1.78,1.78,0,0,1,2,1.66h-.78a1.13,1.13,0,0,0-1.26-1c-.75,0-1.12.36-1.12.93s.33.81,1.36,1.11c1.56.47,1.94,1,1.94,1.91,0,1-.73,1.79-2.12,1.79a1.93,1.93,0,0,1-2.18-1.83Z" transform="translate(-31.05 -8.5)"/><path class="cls-1" d="M593.15,48.5h.75V47.17h.76V48.5h.94v.61h-.94V52c0,.39.1.55.5.55a1.88,1.88,0,0,0,.36,0V53a2.2,2.2,0,0,1-.61.07c-.68,0-1-.25-1-1v-3h-.75Z" transform="translate(-31.05 -8.5)"/><path class="cls-1" d="M599.69,52a7.78,7.78,0,0,0,.06,1h-.69a4,4,0,0,1-.06-.7,1.4,1.4,0,0,1-1.42.78,1.33,1.33,0,0,1-1.48-1.39c0-.68.45-1.45,2.11-1.45h.72v-.44c0-.43-.13-.88-.92-.88a.84.84,0,0,0-1,.81h-.75c.07-.76.52-1.38,1.76-1.38,1,0,1.65.38,1.65,1.42Zm-.74-1.2h-.74c-1.13,0-1.34.45-1.34.87a.79.79,0,0,0,.87.82c.92,0,1.21-.61,1.21-1.59Z" transform="translate(-31.05 -8.5)"/><path class="cls-1" d="M600.33,48.5h.75V47.17h.76V48.5h.94v.61h-.94V52c0,.39.1.55.49.55a1.88,1.88,0,0,0,.36,0V53a2.13,2.13,0,0,1-.6.07c-.68,0-1-.25-1-1v-3h-.75Z" transform="translate(-31.05 -8.5)"/><path class="cls-1" d="M603.59,47.47v-1h.76v1Zm0,1h.76v4.56h-.76Z" transform="translate(-31.05 -8.5)"/><path class="cls-1" d="M606,51.74a1,1,0,0,0,1.05.82c.65,0,.89-.34.89-.73s-.29-.62-1.08-.83c-1.14-.31-1.44-.71-1.44-1.33s.43-1.26,1.57-1.26a1.42,1.42,0,0,1,1.63,1.31h-.76A.81.81,0,0,0,607,49c-.52,0-.76.24-.76.62s.17.53.95.73c1.19.32,1.57.7,1.57,1.43s-.68,1.37-1.69,1.37a1.56,1.56,0,0,1-1.77-1.4Z" transform="translate(-31.05 -8.5)"/><path class="cls-1" d="M609.14,48.5h.75V47.17h.76V48.5h.94v.61h-.94V52c0,.39.1.55.5.55a1.88,1.88,0,0,0,.36,0V53a2.2,2.2,0,0,1-.61.07c-.68,0-1-.25-1-1v-3h-.75Z" transform="translate(-31.05 -8.5)"/><path class="cls-1" d="M612.4,47.47v-1h.76v1Zm0,1h.76v4.56h-.76Z" transform="translate(-31.05 -8.5)"/><path class="cls-1" d="M618,51.6a1.78,1.78,0,0,1-1.88,1.55c-1.3,0-2-.86-2-2.38,0-1.32.69-2.36,2-2.36A1.68,1.68,0,0,1,618,50h-.76a1,1,0,0,0-1.07-1c-.86,0-1.22.73-1.22,1.73,0,1.17.43,1.79,1.21,1.79s.92-.4,1.09-.94Z" transform="translate(-31.05 -8.5)"/><path class="cls-1" d="M619.38,51.74a1,1,0,0,0,1,.82c.65,0,.89-.34.89-.73s-.29-.62-1.08-.83c-1.14-.31-1.44-.71-1.44-1.33s.43-1.26,1.57-1.26A1.42,1.42,0,0,1,622,49.72h-.76a.81.81,0,0,0-.91-.73c-.52,0-.76.24-.76.62s.17.53.95.73c1.19.32,1.57.7,1.57,1.43s-.68,1.37-1.69,1.37a1.56,1.56,0,0,1-1.77-1.4Z" transform="translate(-31.05 -8.5)"/><path class="cls-1" d="M623.16,49.78V48.55h.74v1.23Zm0,3.29V51.83h.74v1.24Z" transform="translate(-31.05 -8.5)"/><path class="cls-1" d="M627.12,46.85V50.8c0,1,.37,1.69,1.5,1.69s1.46-.67,1.46-1.7V46.85h.81v4a2,2,0,0,1-2.3,2.32,2,2,0,0,1-2.26-2.28v-4Z" transform="translate(-31.05 -8.5)"/><path class="cls-1" d="M632.14,49.93c0-1,0-1.24,0-1.43h.75a5,5,0,0,1,0,.71,1.44,1.44,0,0,1,1.39-.8c.86,0,1.48.47,1.48,1.71v2.94H635V50.23c0-.66-.23-1.17-.93-1.17s-1.16.61-1.16,1.56v2.44h-.76Z" transform="translate(-31.05 -8.5)"/><path class="cls-1" d="M637.1,47.47v-1h.76v1Zm0,1h.76v4.56h-.76Z" transform="translate(-31.05 -8.5)"/><path class="cls-1" d="M638.61,48.5h.74V47.17h.77V48.5h.94v.61h-.94V52c0,.39.1.55.49.55a1.88,1.88,0,0,0,.36,0V53a2.13,2.13,0,0,1-.6.07c-.69,0-1-.25-1-1v-3h-.74Z" transform="translate(-31.05 -8.5)"/><path class="cls-1" d="M642.33,50.92c0,.91.39,1.6,1.21,1.6a1.08,1.08,0,0,0,1.08-.75h.74a1.78,1.78,0,0,1-1.86,1.38c-1.45,0-2-1.13-2-2.39a2.08,2.08,0,0,1,2-2.35c1.46,0,1.88,1.11,1.88,2.17v.34Zm2.35-.54c0-.79-.34-1.37-1.15-1.37s-1.14.82-1.19,1.37Z" transform="translate(-31.05 -8.5)"/><path class="cls-1" d="M650.12,46.51v5.36c0,.44,0,.91,0,1.19h-.75c0-.12,0-.41,0-.68-.24.54-.62.76-1.39.76-1.2,0-1.81-1-1.81-2.36s.7-2.37,2-2.37c.75,0,1.11.29,1.23.54V46.51Zm-1.94,6c1,0,1.21-.75,1.21-1.82,0-1.26-.38-1.63-1.17-1.63s-1.27.62-1.27,1.7S647.44,52.5,648.18,52.5Z" transform="translate(-31.05 -8.5)"/><path class="cls-1" d="M653.83,53.06V46.85h1c2.53,4.41,2.87,5,3,5.27h0c0-.83-.06-1.82-.06-2.83V46.85h.74v6.21h-1c-2.72-4.78-2.92-5.17-3.06-5.43h0c.05.8.05,1.85.05,3v2.47Z" transform="translate(-31.05 -8.5)"/><path class="cls-1" d="M663.21,52a10,10,0,0,0,.06,1h-.69a5.21,5.21,0,0,1-.06-.7,1.38,1.38,0,0,1-1.42.78,1.33,1.33,0,0,1-1.48-1.39c0-.68.45-1.45,2.12-1.45h.72v-.44c0-.43-.13-.88-.92-.88s-.92.31-1,.81h-.74c.06-.76.51-1.38,1.75-1.38,1,0,1.65.38,1.65,1.42Zm-.74-1.2h-.73c-1.13,0-1.35.45-1.35.87a.79.79,0,0,0,.87.82c.92,0,1.21-.61,1.21-1.59Z" transform="translate(-31.05 -8.5)"/><path class="cls-1" d="M663.85,48.5h.75V47.17h.76V48.5h.94v.61h-.94V52c0,.39.1.55.5.55a1.88,1.88,0,0,0,.36,0V53a2.2,2.2,0,0,1-.61.07c-.68,0-1-.25-1-1v-3h-.75Z" transform="translate(-31.05 -8.5)"/><path class="cls-1" d="M667.11,47.47v-1h.76v1Zm0,1h.76v4.56h-.76Z" transform="translate(-31.05 -8.5)"/><path class="cls-1" d="M673,50.7c0,1.32-.59,2.44-2.09,2.44s-2-1.16-2-2.41A2.09,2.09,0,0,1,671,48.41,2,2,0,0,1,673,50.7Zm-3.32,0c0,1,.44,1.8,1.28,1.8s1.25-.74,1.25-1.81S671.79,49,671,49,669.69,49.72,669.69,50.72Z" transform="translate(-31.05 -8.5)"/><path class="cls-1" d="M674,49.93c0-1,0-1.24,0-1.43h.75c0,.08,0,.52,0,.71a1.43,1.43,0,0,1,1.38-.8c.87,0,1.49.47,1.49,1.71v2.94h-.77V50.23c0-.66-.23-1.17-.93-1.17s-1.16.61-1.16,1.56v2.44H674Z" transform="translate(-31.05 -8.5)"/><path class="cls-1" d="M679.28,51.74a1,1,0,0,0,1.05.82c.65,0,.89-.34.89-.73s-.29-.62-1.08-.83c-1.14-.31-1.44-.71-1.44-1.33s.43-1.26,1.57-1.26a1.42,1.42,0,0,1,1.63,1.31h-.76a.81.81,0,0,0-.91-.73c-.52,0-.76.24-.76.62s.17.53.95.73c1.19.32,1.57.7,1.57,1.43s-.68,1.37-1.69,1.37a1.56,1.56,0,0,1-1.77-1.4Z" transform="translate(-31.05 -8.5)"/><path class="cls-1" d="M685.7,51.3a1.33,1.33,0,0,0,1.44,1.2c.76,0,1.26-.39,1.26-1.07s-.33-1-1.44-1.32c-1.33-.4-1.85-.83-1.85-1.72s.77-1.62,2-1.62a1.78,1.78,0,0,1,2,1.66h-.78a1.13,1.13,0,0,0-1.26-1c-.75,0-1.12.36-1.12.93s.34.81,1.36,1.11c1.56.47,1.94,1,1.94,1.91,0,1-.73,1.79-2.12,1.79a1.93,1.93,0,0,1-2.18-1.83Z" transform="translate(-31.05 -8.5)"/><path class="cls-1" d="M690.36,46.85h2.07a2.68,2.68,0,0,1,2.83,2.95c0,2-1.07,3.26-2.93,3.26h-2Zm.79,5.57h1.14c1.46,0,2.15-1,2.15-2.59a2.07,2.07,0,0,0-2.14-2.34h-1.15Z" transform="translate(-31.05 -8.5)"/><path class="cls-1" d="M701.23,53.06h-.62a6.18,6.18,0,0,1-.07-.9,1.82,1.82,0,0,1-1.86,1c-1.66,0-2.47-1.39-2.47-3.17s1-3.22,2.73-3.22a2.07,2.07,0,0,1,2.29,1.8h-.77a1.43,1.43,0,0,0-1.55-1.14c-1.31,0-1.88,1.13-1.88,2.56s.53,2.52,1.78,2.52,1.63-.93,1.63-2.07v0H698.8v-.68h2.43Z" transform="translate(-31.05 -8.5)"/><path class="cls-1" d="M709.59,53.06H709a6.66,6.66,0,0,1-.06-.9,1.83,1.83,0,0,1-1.87,1c-1.66,0-2.47-1.39-2.47-3.17s1-3.22,2.74-3.22a2.08,2.08,0,0,1,2.29,1.8h-.78a1.42,1.42,0,0,0-1.55-1.14c-1.31,0-1.88,1.13-1.88,2.56s.54,2.52,1.79,2.52,1.63-.93,1.63-2.07v0h-1.65v-.68h2.43Z" transform="translate(-31.05 -8.5)"/><path class="cls-1" d="M711,53.06V46.51h.77v6.55Z" transform="translate(-31.05 -8.5)"/><path class="cls-1" d="M716.92,50.7c0,1.32-.59,2.44-2.09,2.44s-2-1.16-2-2.41a2.09,2.09,0,0,1,2.09-2.32A2,2,0,0,1,716.92,50.7Zm-3.32,0c0,1,.44,1.8,1.28,1.8s1.25-.74,1.25-1.81S715.71,49,714.86,49,713.6,49.72,713.6,50.72Z" transform="translate(-31.05 -8.5)"/><path class="cls-1" d="M717.93,46.51h.77v2.62a1.49,1.49,0,0,1,1.39-.72c1.14,0,1.8.9,1.8,2.23s-.6,2.5-1.93,2.5a1.29,1.29,0,0,1-1.27-.66,3.82,3.82,0,0,1,0,.58h-.75c0-.25,0-.73,0-1.3Zm2,2.54c-.93,0-1.26.59-1.26,1.67s.27,1.77,1.23,1.77,1.23-.75,1.23-1.82S720.71,49.05,719.91,49.05Z" transform="translate(-31.05 -8.5)"/><path class="cls-1" d="M726.18,52a7.66,7.66,0,0,0,.07,1h-.69a3.79,3.79,0,0,1-.07-.7,1.38,1.38,0,0,1-1.41.78,1.33,1.33,0,0,1-1.48-1.39c0-.68.45-1.45,2.11-1.45h.72v-.44c0-.43-.13-.88-.92-.88a.84.84,0,0,0-1,.81h-.75c.06-.76.52-1.38,1.76-1.38,1,0,1.64.38,1.64,1.42Zm-.73-1.2h-.74c-1.13,0-1.34.45-1.34.87a.78.78,0,0,0,.86.82c.92,0,1.22-.61,1.22-1.59Z" transform="translate(-31.05 -8.5)"/><path class="cls-1" d="M727.53,53.06V46.51h.76v6.55Z" transform="translate(-31.05 -8.5)"/><path class="cls-1" d="M732.78,46.85v6.21H732V46.85Z" transform="translate(-31.05 -8.5)"/><path class="cls-1" d="M734.11,49.93c0-1,0-1.24,0-1.43h.74a4.81,4.81,0,0,1,0,.71,1.42,1.42,0,0,1,1.38-.8c.87,0,1.48.47,1.48,1.71v2.94H737V50.23c0-.66-.23-1.17-.93-1.17s-1.16.61-1.16,1.56v2.44h-.76Z" transform="translate(-31.05 -8.5)"/><path class="cls-1" d="M742.69,46.51v5.36c0,.44,0,.91,0,1.19H742c0-.12,0-.41,0-.68-.24.54-.62.76-1.38.76-1.21,0-1.82-1-1.82-2.36s.7-2.37,2-2.37c.76,0,1.11.29,1.23.54V46.51Zm-1.94,6c1,0,1.21-.75,1.21-1.82,0-1.26-.38-1.63-1.17-1.63s-1.27.62-1.27,1.7S740,52.5,740.75,52.5Z" transform="translate(-31.05 -8.5)"/><path class="cls-1" d="M744.05,47.47v-1h.77v1Zm0,1h.77v4.56h-.77Z" transform="translate(-31.05 -8.5)"/><path class="cls-1" d="M749.69,51.6a1.78,1.78,0,0,1-1.88,1.55c-1.3,0-2-.86-2-2.38,0-1.32.69-2.36,2-2.36A1.68,1.68,0,0,1,749.68,50h-.76a1,1,0,0,0-1.07-1c-.85,0-1.22.73-1.22,1.73,0,1.17.43,1.79,1.21,1.79s.92-.4,1.09-.94Z" transform="translate(-31.05 -8.5)"/><path class="cls-1" d="M754,52a10,10,0,0,0,.06,1h-.69a5.21,5.21,0,0,1-.06-.7,1.39,1.39,0,0,1-1.42.78,1.33,1.33,0,0,1-1.48-1.39c0-.68.45-1.45,2.12-1.45h.71v-.44c0-.43-.13-.88-.92-.88a.84.84,0,0,0-1,.81h-.75c.07-.76.52-1.38,1.76-1.38,1,0,1.65.38,1.65,1.42Zm-.74-1.2h-.73c-1.13,0-1.35.45-1.35.87a.79.79,0,0,0,.87.82c.92,0,1.21-.61,1.21-1.59Z" transform="translate(-31.05 -8.5)"/><path class="cls-1" d="M754.61,48.5h.75V47.17h.76V48.5h.94v.61h-.94V52c0,.39.1.55.5.55a1.88,1.88,0,0,0,.36,0V53a2.2,2.2,0,0,1-.61.07c-.68,0-1-.25-1-1v-3h-.75Z" transform="translate(-31.05 -8.5)"/><path class="cls-1" d="M761.66,50.7c0,1.32-.59,2.44-2.09,2.44s-2-1.16-2-2.41a2.09,2.09,0,0,1,2.09-2.32A2,2,0,0,1,761.66,50.7Zm-3.32,0c0,1,.44,1.8,1.28,1.8s1.25-.74,1.25-1.81S760.45,49,759.6,49,758.34,49.72,758.34,50.72Z" transform="translate(-31.05 -8.5)"/><path class="cls-1" d="M762.68,50c0-.73,0-1.32,0-1.54h.75c0,.21,0,.5,0,.92a1.57,1.57,0,0,1,1.51-1v.78c-1.05,0-1.49.64-1.49,1.63v2.24h-.77Z" transform="translate(-31.05 -8.5)"/><path class="cls-1" d="M766.12,51.74a1,1,0,0,0,1,.82c.65,0,.89-.34.89-.73s-.29-.62-1.08-.83c-1.14-.31-1.44-.71-1.44-1.33s.43-1.26,1.57-1.26a1.42,1.42,0,0,1,1.63,1.31H768a.81.81,0,0,0-.91-.73c-.52,0-.76.24-.76.62s.17.53,1,.73c1.19.32,1.57.7,1.57,1.43s-.68,1.37-1.69,1.37a1.56,1.56,0,0,1-1.77-1.4Z" transform="translate(-31.05 -8.5)"/><path class="cls-1" d="M772.19,46.85h2.07a2.68,2.68,0,0,1,2.83,2.95c0,2-1.08,3.26-2.94,3.26h-2Zm.79,5.57h1.14c1.45,0,2.15-1,2.15-2.59a2.07,2.07,0,0,0-2.14-2.34H773Z" transform="translate(-31.05 -8.5)"/><path class="cls-1" d="M781.48,52a7.78,7.78,0,0,0,.06,1h-.69a4,4,0,0,1-.06-.7,1.4,1.4,0,0,1-1.42.78,1.33,1.33,0,0,1-1.48-1.39c0-.68.45-1.45,2.11-1.45h.72v-.44c0-.43-.13-.88-.92-.88a.84.84,0,0,0-1,.81h-.75c.07-.76.52-1.38,1.76-1.38,1,0,1.65.38,1.65,1.42Zm-.74-1.2H780c-1.13,0-1.34.45-1.34.87a.79.79,0,0,0,.87.82c.92,0,1.21-.61,1.21-1.59Z" transform="translate(-31.05 -8.5)"/><path class="cls-1" d="M782.12,48.5h.75V47.17h.76V48.5h.94v.61h-.94V52c0,.39.1.55.5.55a2,2,0,0,0,.36,0V53a2.2,2.2,0,0,1-.61.07c-.68,0-1-.25-1-1v-3h-.75Z" transform="translate(-31.05 -8.5)"/><path class="cls-1" d="M788.65,52a7.66,7.66,0,0,0,.07,1H788a3.79,3.79,0,0,1-.07-.7,1.38,1.38,0,0,1-1.41.78,1.33,1.33,0,0,1-1.48-1.39c0-.68.45-1.45,2.11-1.45h.72v-.44c0-.43-.13-.88-.92-.88a.84.84,0,0,0-1,.81h-.75c.06-.76.52-1.38,1.76-1.38,1,0,1.64.38,1.64,1.42Zm-.73-1.2h-.74c-1.13,0-1.34.45-1.34.87a.78.78,0,0,0,.86.82c.92,0,1.22-.61,1.22-1.59Z" transform="translate(-31.05 -8.5)"/><path class="cls-1" d="M790,46.51h.76v2.62a1.51,1.51,0,0,1,1.4-.72c1.13,0,1.79.9,1.79,2.23s-.59,2.5-1.93,2.5a1.3,1.3,0,0,1-1.27-.66,3.82,3.82,0,0,1,0,.58H790c0-.25,0-.73,0-1.3Zm2,2.54c-.93,0-1.26.59-1.26,1.67s.26,1.77,1.23,1.77,1.22-.75,1.22-1.82S792.77,49.05,792,49.05Z" transform="translate(-31.05 -8.5)"/><path class="cls-1" d="M798.24,52a10,10,0,0,0,.06,1h-.69a5.21,5.21,0,0,1-.06-.7,1.38,1.38,0,0,1-1.42.78,1.33,1.33,0,0,1-1.48-1.39c0-.68.45-1.45,2.12-1.45h.72v-.44c0-.43-.13-.88-.92-.88s-.92.31-1,.81h-.74c.06-.76.51-1.38,1.75-1.38,1,0,1.65.38,1.65,1.42Zm-.74-1.2h-.73c-1.13,0-1.35.45-1.35.87a.79.79,0,0,0,.87.82c.92,0,1.21-.61,1.21-1.59Z" transform="translate(-31.05 -8.5)"/><path class="cls-1" d="M799.84,51.74a1,1,0,0,0,1,.82c.64,0,.89-.34.89-.73s-.29-.62-1.08-.83c-1.14-.31-1.44-.71-1.44-1.33s.42-1.26,1.57-1.26,1.56.61,1.62,1.31h-.75a.81.81,0,0,0-.91-.73c-.53,0-.76.24-.76.62s.17.53,1,.73c1.19.32,1.57.7,1.57,1.43s-.68,1.37-1.69,1.37a1.56,1.56,0,0,1-1.77-1.4Z" transform="translate(-31.05 -8.5)"/><path class="cls-1" d="M804.05,50.92c0,.91.39,1.6,1.21,1.6a1.07,1.07,0,0,0,1.08-.75h.74a1.78,1.78,0,0,1-1.86,1.38c-1.45,0-2-1.13-2-2.39a2.08,2.08,0,0,1,2-2.35c1.46,0,1.89,1.11,1.89,2.17v.34Zm2.35-.54c0-.79-.34-1.37-1.15-1.37s-1.14.82-1.19,1.37Z" transform="translate(-31.05 -8.5)"/><path class="cls-1" d="M808,53.07V51.83h.75v1.24Z" transform="translate(-31.05 -8.5)"/><path class="cls-1" d="M588.89,57.65h2.22c1.14,0,1.86.56,1.86,1.53a1.25,1.25,0,0,1-.91,1.29A1.57,1.57,0,0,1,593.17,62c0,1.19-.88,1.84-2.14,1.84h-2.14Zm2,2.55c.9,0,1.26-.35,1.26-1s-.38-1-1.2-1h-1.32V60.2Zm-1.26,3H591c.8,0,1.41-.38,1.41-1.22s-.49-1.2-1.48-1.2h-1.22Z" transform="translate(-31.05 -8.5)"/><path class="cls-1" d="M598,61.5c0,1.32-.59,2.44-2.09,2.44s-2-1.16-2-2.41A2.09,2.09,0,0,1,596,59.21,2,2,0,0,1,598,61.5Zm-3.32,0c0,1,.44,1.8,1.28,1.8s1.25-.74,1.25-1.81-.43-1.68-1.27-1.68S594.72,60.52,594.72,61.52Z" transform="translate(-31.05 -8.5)"/><path class="cls-1" d="M602.59,62.57c0,.57,0,1.07,0,1.29h-.73a4.26,4.26,0,0,1,0-.73,1.38,1.38,0,0,1-1.37.81c-.73,0-1.43-.34-1.43-1.57V59.29h.76v2.93c0,.6.19,1.07.9,1.07s1.12-.44,1.12-1.45V59.29h.77Z" transform="translate(-31.05 -8.5)"/><path class="cls-1" d="M603.94,60.73c0-1,0-1.24,0-1.44h.74a5,5,0,0,1,0,.72,1.42,1.42,0,0,1,1.38-.8c.87,0,1.48.47,1.48,1.71v2.94h-.76V61c0-.66-.23-1.17-.93-1.17s-1.16.61-1.16,1.56v2.44h-.76Z" transform="translate(-31.05 -8.5)"/><path class="cls-1" d="M612.52,57.31v5.36c0,.44,0,.91,0,1.19h-.75c0-.12,0-.41,0-.68a1.3,1.3,0,0,1-1.39.76c-1.21,0-1.82-1-1.82-2.36s.7-2.37,2-2.37c.76,0,1.11.29,1.24.54V57.31Zm-1.94,6c1,0,1.21-.75,1.21-1.82,0-1.26-.37-1.63-1.16-1.63s-1.27.62-1.27,1.7S609.84,63.3,610.58,63.3Z" transform="translate(-31.05 -8.5)"/><path class="cls-1" d="M617.13,62.84a10,10,0,0,0,.06,1h-.69a5.21,5.21,0,0,1-.06-.7,1.38,1.38,0,0,1-1.42.78,1.33,1.33,0,0,1-1.48-1.39c0-.68.45-1.45,2.12-1.45h.72v-.44c0-.43-.13-.88-.92-.88s-.92.31-1,.81h-.74c.06-.76.51-1.38,1.75-1.38,1,0,1.65.38,1.65,1.42Zm-.74-1.2h-.73c-1.13,0-1.35.45-1.35.87a.79.79,0,0,0,.87.82c.92,0,1.21-.61,1.21-1.59Z" transform="translate(-31.05 -8.5)"/><path class="cls-1" d="M618.47,60.84c0-.73,0-1.32,0-1.55h.75c0,.22,0,.51,0,.93a1.57,1.57,0,0,1,1.51-1V60c-1.05,0-1.49.64-1.49,1.63v2.24h-.77Z" transform="translate(-31.05 -8.5)"/><path class="cls-1" d="M622.11,59.29c.72,2.22,1.1,3.33,1.22,3.88h0c.14-.51.55-1.9,1.19-3.88h.79l-1.64,4.78c-.47,1.38-.86,1.67-1.68,1.67a2.83,2.83,0,0,1-.41,0v-.64l.41,0c.56,0,.73-.44,1-1.09l-1.66-4.71Z" transform="translate(-31.05 -8.5)"/><path class="cls-1" d="M628.43,63.86v-4h-.72v-.62h.72v-.56c0-.81.28-1.5,1.26-1.5a1.51,1.51,0,0,1,.44.06v.64a1.25,1.25,0,0,0-.38,0c-.41,0-.57.27-.57.81v.6h.87v.62h-.87v4Z" transform="translate(-31.05 -8.5)"/><path class="cls-1" d="M630.8,58.27v-1h.76v1Zm0,1h.76v4.57h-.76Z" transform="translate(-31.05 -8.5)"/><path class="cls-1" d="M632.91,63.86V57.31h.76v6.55Z" transform="translate(-31.05 -8.5)"/><path class="cls-1" d="M635.47,61.72c0,.91.4,1.6,1.22,1.6a1.08,1.08,0,0,0,1.08-.75h.74A1.78,1.78,0,0,1,636.65,64c-1.45,0-1.95-1.13-1.95-2.39a2.08,2.08,0,0,1,2-2.35c1.46,0,1.88,1.11,1.88,2.17v.34Zm2.36-.54c0-.79-.34-1.37-1.15-1.37s-1.14.82-1.19,1.37Z" transform="translate(-31.05 -8.5)"/><path class="cls-1" d="M639.72,60.58V59.35h.74v1.23Zm0,3.29V62.63h.74v1.24Z" transform="translate(-31.05 -8.5)"/><path class="cls-1" d="M643,63.86V57.65h1c2.53,4.41,2.87,5,3,5.27h0c-.06-.83-.07-1.82-.07-2.83V57.65h.75v6.21h-1c-2.71-4.78-2.91-5.17-3.05-5.43h0c.05.8.05,1.85.05,3v2.47Z" transform="translate(-31.05 -8.5)"/><path class="cls-1" d="M652.34,62.84a7.78,7.78,0,0,0,.06,1h-.69a4,4,0,0,1-.06-.7,1.4,1.4,0,0,1-1.42.78,1.33,1.33,0,0,1-1.48-1.39c0-.68.45-1.45,2.11-1.45h.72v-.44c0-.43-.13-.88-.92-.88a.84.84,0,0,0-1,.81h-.75c.07-.76.52-1.38,1.76-1.38,1,0,1.65.38,1.65,1.42Zm-.74-1.2h-.74c-1.13,0-1.34.45-1.34.87a.79.79,0,0,0,.87.82c.92,0,1.21-.61,1.21-1.59Z" transform="translate(-31.05 -8.5)"/><path class="cls-1" d="M653,59.29h.74V58h.77v1.32h.94v.62h-.94v2.85c0,.39.1.55.49.55a1.88,1.88,0,0,0,.36,0v.57a2.13,2.13,0,0,1-.6.07c-.68,0-1-.25-1-1v-3H653Z" transform="translate(-31.05 -8.5)"/><path class="cls-1" d="M659.68,62.57c0,.57,0,1.07,0,1.29H659a4.26,4.26,0,0,1,0-.73,1.38,1.38,0,0,1-1.37.81c-.72,0-1.42-.34-1.42-1.57V59.29h.75v2.93c0,.6.19,1.07.9,1.07s1.12-.44,1.12-1.45V59.29h.78Z" transform="translate(-31.05 -8.5)"/><path class="cls-1" d="M661,60.84c0-.73,0-1.32,0-1.55h.75c0,.22,0,.51,0,.93a1.57,1.57,0,0,1,1.5-1V60c-1,0-1.49.64-1.49,1.63v2.24H661Z" transform="translate(-31.05 -8.5)"/><path class="cls-1" d="M667.22,62.84a7.66,7.66,0,0,0,.07,1h-.69a3.79,3.79,0,0,1-.07-.7,1.38,1.38,0,0,1-1.42.78,1.33,1.33,0,0,1-1.48-1.39c0-.68.45-1.45,2.12-1.45h.72v-.44c0-.43-.13-.88-.92-.88a.86.86,0,0,0-1,.81h-.74c.06-.76.51-1.38,1.75-1.38,1,0,1.65.38,1.65,1.42Zm-.73-1.2h-.74c-1.13,0-1.34.45-1.34.87a.78.78,0,0,0,.86.82c.92,0,1.22-.61,1.22-1.59Z" transform="translate(-31.05 -8.5)"/><path class="cls-1" d="M668.56,63.86V57.31h.77v6.55Z" transform="translate(-31.05 -8.5)"/><path class="cls-1" d="M676.66,60.93H673.8V63.2H677l-.11.66H673V57.65h3.76v.65h-3v2h2.86Z" transform="translate(-31.05 -8.5)"/><path class="cls-1" d="M681.24,62.84a7.66,7.66,0,0,0,.07,1h-.69a3.79,3.79,0,0,1-.07-.7,1.38,1.38,0,0,1-1.42.78,1.33,1.33,0,0,1-1.48-1.39c0-.68.45-1.45,2.12-1.45h.72v-.44c0-.43-.13-.88-.92-.88a.86.86,0,0,0-1,.81h-.74c.06-.76.51-1.38,1.75-1.38,1,0,1.65.38,1.65,1.42Zm-.73-1.2h-.74c-1.13,0-1.34.45-1.34.87a.78.78,0,0,0,.86.82c.92,0,1.22-.61,1.22-1.59Z" transform="translate(-31.05 -8.5)"/><path class="cls-1" d="M682.59,60.84c0-.73,0-1.32,0-1.55h.74c0,.22,0,.51,0,.93a1.58,1.58,0,0,1,1.51-1V60c-1.05,0-1.49.64-1.49,1.63v2.24h-.76Z" transform="translate(-31.05 -8.5)"/><path class="cls-1" d="M685.32,59.29h.74V58h.77v1.32h.94v.62h-.94v2.85c0,.39.1.55.49.55a1.88,1.88,0,0,0,.36,0v.57a2.13,2.13,0,0,1-.6.07c-.69,0-1-.25-1-1v-3h-.74Z" transform="translate(-31.05 -8.5)"/><path class="cls-1" d="M689.29,57.31V60a1.45,1.45,0,0,1,1.39-.74c.68,0,1.47.34,1.47,1.63v3h-.76V61c0-.69-.28-1.11-1-1.11s-1.14.49-1.14,1.4v2.6h-.76V57.31Z" transform="translate(-31.05 -8.5)"/><path class="cls-1" d="M696.34,63.86V58.72a4.26,4.26,0,0,1-1.06.35v-.59a2.72,2.72,0,0,0,1.28-.67h.54v6Z" transform="translate(-31.05 -8.5)"/><path class="cls-1" d="M698.64,60.58V59.35h.74v1.23Zm0,3.29V62.63h.74v1.24Z" transform="translate(-31.05 -8.5)"/><path class="cls-1" d="M701.44,63.86V58.72a4.4,4.4,0,0,1-1.06.35v-.59a2.77,2.77,0,0,0,1.28-.67h.54v6Z" transform="translate(-31.05 -8.5)"/><path class="cls-1" d="M704.26,63.86V58.72a4.26,4.26,0,0,1-1.06.35v-.59a2.72,2.72,0,0,0,1.28-.67H705v6Z" transform="translate(-31.05 -8.5)"/><path class="cls-1" d="M710.24,60.71c0,1.63-.37,3.24-2,3.24s-2-1.67-2-3.22.53-3,2-3S710.24,59.12,710.24,60.71Zm-3.18,0c0,1.47.27,2.63,1.21,2.63s1.2-1.16,1.2-2.61c0-1.28-.27-2.37-1.19-2.37S707.06,59.46,707.06,60.71Z" transform="translate(-31.05 -8.5)"/><path class="cls-1" d="M711.39,60.72c0-.81,0-1.22,0-1.43h.75c0,.13,0,.49,0,.65a1.4,1.4,0,0,1,1.3-.73,1.14,1.14,0,0,1,1.2.78,1.46,1.46,0,0,1,1.38-.78c.71,0,1.4.36,1.4,1.55v3.1h-.76v-3c0-.56-.18-1-.84-1s-1,.6-1,1.33v2.68H714v-3c0-.56-.23-1-.84-1s-1.05.49-1.05,1.4v2.6h-.76Z" transform="translate(-31.05 -8.5)"/><path class="cls-1" d="M718.49,63.87V62.63h.76v1.24Z" transform="translate(-31.05 -8.5)"/><path class="cls-1" d="M728.34,60.75a3,3,0,1,1-6,0,3,3,0,0,1,3-3.16A3,3,0,0,1,728.34,60.75Zm-5.51,0a2.53,2.53,0,0,0,2.5,2.7,2.46,2.46,0,0,0,2.5-2.72,2.52,2.52,0,0,0-2.5-2.71A2.49,2.49,0,0,0,722.83,60.77Zm4,.55a1.38,1.38,0,0,1-1.44,1.21c-.94,0-1.58-.65-1.58-1.83A1.57,1.57,0,0,1,725.38,59a1.35,1.35,0,0,1,1.44,1.24h-.58a.83.83,0,0,0-.86-.74c-.61,0-1,.45-1,1.23s.39,1.35,1,1.35a.83.83,0,0,0,.86-.71Z" transform="translate(-31.05 -8.5)"/><path class="cls-1" d="M733.29,62c0,1.06-.26,1.93-1.57,1.93a4,4,0,0,1-.6,0v-.64a4.11,4.11,0,0,0,.53,0c.74,0,.85-.53.85-1.23v-4.4h.79Z" transform="translate(-31.05 -8.5)"/><path class="cls-1" d="M738.41,61.5c0,1.32-.59,2.44-2.09,2.44s-2-1.16-2-2.41a2.09,2.09,0,0,1,2.09-2.32A2,2,0,0,1,738.41,61.5Zm-3.32,0c0,1,.44,1.8,1.28,1.8s1.25-.74,1.25-1.81-.42-1.68-1.27-1.68S735.09,60.52,735.09,61.52Z" transform="translate(-31.05 -8.5)"/><path class="cls-1" d="M743,62.57c0,.57,0,1.07,0,1.29h-.74a4.26,4.26,0,0,1,0-.73,1.38,1.38,0,0,1-1.37.81c-.73,0-1.42-.34-1.42-1.57V59.29h.75v2.93c0,.6.19,1.07.9,1.07s1.12-.44,1.12-1.45V59.29H743Z" transform="translate(-31.05 -8.5)"/><path class="cls-1" d="M744.31,60.84c0-.73,0-1.32,0-1.55H745c0,.22,0,.51,0,.93a1.59,1.59,0,0,1,1.51-1V60c-1,0-1.49.64-1.49,1.63v2.24h-.76Z" transform="translate(-31.05 -8.5)"/><path class="cls-1" d="M747.31,60.73c0-1,0-1.24,0-1.44H748c0,.09,0,.53,0,.72a1.43,1.43,0,0,1,1.38-.8c.87,0,1.48.47,1.48,1.71v2.94h-.76V61c0-.66-.23-1.17-.93-1.17s-1.16.61-1.16,1.56v2.44h-.76Z" transform="translate(-31.05 -8.5)"/><path class="cls-1" d="M755.46,62.84a10,10,0,0,0,.06,1h-.69a5.21,5.21,0,0,1-.06-.7,1.38,1.38,0,0,1-1.42.78,1.33,1.33,0,0,1-1.48-1.39c0-.68.45-1.45,2.12-1.45h.72v-.44c0-.43-.13-.88-.92-.88s-.92.31-1,.81h-.74c.06-.76.51-1.38,1.75-1.38,1,0,1.65.38,1.65,1.42Zm-.74-1.2H754c-1.13,0-1.35.45-1.35.87a.79.79,0,0,0,.87.82c.92,0,1.21-.61,1.21-1.59Z" transform="translate(-31.05 -8.5)"/><path class="cls-1" d="M756.8,63.86V57.31h.77v6.55Z" transform="translate(-31.05 -8.5)"/><path class="cls-1" d="M765,61.5c0,1.32-.58,2.44-2.08,2.44s-2-1.16-2-2.41a2.09,2.09,0,0,1,2.09-2.32A2,2,0,0,1,765,61.5Zm-3.32,0c0,1,.44,1.8,1.28,1.8s1.25-.74,1.25-1.81-.42-1.68-1.27-1.68S761.64,60.52,761.64,61.52Z" transform="translate(-31.05 -8.5)"/><path class="cls-1" d="M766.15,63.86v-4h-.72v-.62h.72v-.56c0-.81.29-1.5,1.26-1.5a1.46,1.46,0,0,1,.44.06v.64a1.22,1.22,0,0,0-.37,0c-.42,0-.57.27-.57.81v.6h.87v.62h-.87v4Z" transform="translate(-31.05 -8.5)"/><path class="cls-1" d="M775.88,61.21c0-1.15,0-2.34,0-3h0c-.3,1.12-1.28,3.86-1.93,5.64h-.73c-.49-1.49-1.5-4.47-1.8-5.65h0c.06.72.08,2.1.08,3.17v2.48h-.75V57.65h1.19c.66,1.83,1.51,4.37,1.73,5.23h0c.13-.6,1.15-3.39,1.84-5.23h1.15v6.21h-.77Z" transform="translate(-31.05 -8.5)"/><path class="cls-1" d="M781.29,62.84a7.78,7.78,0,0,0,.06,1h-.69a3.79,3.79,0,0,1-.07-.7,1.38,1.38,0,0,1-1.41.78,1.33,1.33,0,0,1-1.48-1.39c0-.68.45-1.45,2.11-1.45h.72v-.44c0-.43-.13-.88-.92-.88a.84.84,0,0,0-1,.81h-.75c.07-.76.52-1.38,1.76-1.38,1,0,1.65.38,1.65,1.42Zm-.74-1.2h-.74c-1.13,0-1.34.45-1.34.87a.78.78,0,0,0,.86.82c.92,0,1.22-.61,1.22-1.59Z" transform="translate(-31.05 -8.5)"/><path class="cls-1" d="M782.63,65.67v-5c0-.62,0-1.07,0-1.35h.75c0,.16,0,.48,0,.74a1.52,1.52,0,0,1,1.46-.82c1,0,1.74.78,1.74,2.29s-.83,2.43-1.93,2.43a1.34,1.34,0,0,1-1.27-.62v2.36Zm2-5.82c-1,0-1.25.64-1.25,1.74s.2,1.7,1.2,1.7c.78,0,1.24-.63,1.24-1.76S785.34,59.85,784.6,59.85Z" transform="translate(-31.05 -8.5)"/><path class="cls-1" d="M788,62.54a1,1,0,0,0,1,.82c.65,0,.89-.34.89-.73s-.29-.63-1.08-.83c-1.14-.31-1.44-.71-1.44-1.33s.43-1.26,1.57-1.26a1.42,1.42,0,0,1,1.63,1.31h-.76a.81.81,0,0,0-.91-.73c-.52,0-.76.24-.76.62s.17.53,1,.73c1.19.32,1.57.7,1.57,1.43S790,63.94,789,63.94a1.56,1.56,0,0,1-1.77-1.4Z" transform="translate(-31.05 -8.5)"/><path class="cls-1" d="M791.14,64.92a6.12,6.12,0,0,0,.58-2.31h.74a4.78,4.78,0,0,1-.69,2.31Z" transform="translate(-31.05 -8.5)"/><path class="cls-1" d="M795.33,63.86v0c0-.64.35-1.57,1.74-2.68.89-.72,1.24-1,1.24-1.7a1,1,0,0,0-1-1c-.76,0-1.07.46-1.16,1.19h-.74a1.78,1.78,0,0,1,1.92-1.81,1.61,1.61,0,0,1,1.8,1.65c0,.88-.44,1.33-1.51,2.18a3.92,3.92,0,0,0-1.34,1.62h3l-.1.65Z" transform="translate(-31.05 -8.5)"/><path class="cls-1" d="M804,60.71c0,1.63-.36,3.24-2,3.24s-2-1.67-2-3.22.53-3,2-3S804,59.12,804,60.71Zm-3.18,0c0,1.47.27,2.63,1.21,2.63s1.2-1.16,1.2-2.61c0-1.28-.27-2.37-1.19-2.37S800.77,59.46,800.77,60.71Z" transform="translate(-31.05 -8.5)"/><path class="cls-1" d="M804.73,63.86v0c0-.64.35-1.57,1.73-2.68.89-.72,1.24-1,1.24-1.7a1,1,0,0,0-1-1c-.76,0-1.07.46-1.16,1.19h-.74a1.79,1.79,0,0,1,1.93-1.81,1.61,1.61,0,0,1,1.79,1.65c0,.88-.43,1.33-1.51,2.18a3.88,3.88,0,0,0-1.33,1.62h3l-.1.65Z" transform="translate(-31.05 -8.5)"/><path class="cls-1" d="M813.35,60.71c0,1.63-.37,3.24-2,3.24s-2-1.67-2-3.22.54-3,2-3S813.35,59.12,813.35,60.71Zm-3.19,0c0,1.47.27,2.63,1.22,2.63s1.19-1.16,1.19-2.61c0-1.28-.26-2.37-1.18-2.37S810.16,59.46,810.16,60.71Z" transform="translate(-31.05 -8.5)"/><path class="cls-1" d="M814.22,63.87V62.63H815v1.24Z" transform="translate(-31.05 -8.5)"/><line class="cls-2" x1="531.95" x2="531.95" y2="63"/><circle class="cls-3" cx="447.06" cy="52.5" r="3.95" transform="translate(219.18 448.82) rotate(-70.77)"/><circle class="cls-4" cx="410.78" cy="52.5" r="3.95" transform="translate(194.85 414.57) rotate(-70.77)"/><circle class="cls-5" cx="374.56" cy="52.5" r="3.95" transform="translate(170.56 380.37) rotate(-70.77)"/><circle class="cls-6" cx="317.95" cy="52.5" r="3.95" transform="translate(132.6 326.92) rotate(-70.77)"/><text class="cls-7" transform="translate(408.26 33.22)">&gt;<tspan class="cls-8" x="4.87" y="0"></tspan><tspan x="5.87" y="0">5</tspan><tspan class="cls-9" x="10.43" y="0">0</tspan><tspan class="cls-8" x="14.49" y="0"></tspan></text><rect class="cls-3" x="400.13" y="3.12" width="31.75" height="18.14" rx="4.54"/><text class="cls-7" transform="translate(367.47 33.22)"><tspan class="cls-10">2</tspan><tspan x="4.36" y="0">5</tspan><tspan class="cls-8" x="8.91" y="0"></tspan><tspan x="9.91" y="0"></tspan><tspan class="cls-8" x="14.19" y="0"></tspan><tspan class="cls-11" x="15.19" y="0">50</tspan></text><rect class="cls-4" x="363.85" y="3.12" width="31.75" height="18.14" rx="4.54"/><text class="cls-7" transform="translate(333.53 33.22)">0<tspan class="cls-8" x="4.77" y="0"></tspan><tspan x="5.77" y="0"></tspan><tspan class="cls-8" x="10.05" y="0"></tspan><tspan class="cls-10" x="11.05" y="0">2</tspan><tspan x="15.41" y="0">5</tspan></text><rect class="cls-5" x="327.63" y="3.12" width="31.75" height="18.14" rx="4.54"/><text class="cls-12" transform="translate(272.84 33.22)">No <tspan class="cls-13" x="12.03" y="0">d</tspan><tspan class="cls-14" x="16.68" y="0">ata</tspan></text><rect class="cls-6" x="271.02" y="3.12" width="31.75" height="18.14" rx="4.54"/><path class="cls-15" d="M32.5,19.82a1.49,1.49,0,0,0,1.61,1.35c1,0,1.39-.44,1.39-1.14s-.44-1.14-1.72-1.51c-1.85-.53-2.5-1.18-2.5-2.36,0-1.46,1.14-2.3,2.7-2.3,1.9,0,2.71,1,2.81,2.31H35.35A1.25,1.25,0,0,0,34,15c-.82,0-1.22.39-1.22,1s.42.88,1.64,1.24c2.08.62,2.61,1.44,2.61,2.6,0,1.36-.91,2.45-3,2.45-1.77,0-2.88-.91-3-2.49Z" transform="translate(-31.05 -8.5)"/><path class="cls-15" d="M38.28,14h2.8c2.36,0,3.81,1.47,3.81,3.94,0,2.68-1.43,4.3-3.9,4.3H38.28Zm1.46,7.08H41c1.61,0,2.42-1.15,2.42-3.11,0-1.7-.83-2.79-2.4-2.79H39.74Z" transform="translate(-31.05 -8.5)"/><path class="cls-15" d="M52.71,22.21H51.63a6.36,6.36,0,0,1-.12-1,2.32,2.32,0,0,1-2.33,1.15c-2.15,0-3.26-1.81-3.26-4.19s1.31-4.28,3.7-4.28a2.84,2.84,0,0,1,3.11,2.44H51.3A1.64,1.64,0,0,0,49.54,15c-1.53,0-2.12,1.42-2.12,3.11s.6,3,2.07,3,1.78-1,1.78-2.21v0H49.41V17.67h3.3Z" transform="translate(-31.05 -8.5)"/><path class="cls-15" d="M58.57,14v8.24H57.12V14Z" transform="translate(-31.05 -8.5)"/><path class="cls-15" d="M60,18c0-1.27,0-1.65,0-1.92h1.38a7.9,7.9,0,0,1,0,.85,1.86,1.86,0,0,1,1.75-1c1.24,0,2,.76,2,2.26v4H63.72V18.45c0-.76-.21-1.34-1-1.34s-1.25.56-1.25,1.71v3.39H60Z" transform="translate(-31.05 -8.5)"/><path class="cls-15" d="M71.78,13.49v7c0,.68,0,1.31,0,1.68H70.42a7.88,7.88,0,0,1,0-.79,1.68,1.68,0,0,1-1.76.91c-1.58,0-2.39-1.31-2.39-3.19s1-3.21,2.63-3.21c1,0,1.37.34,1.51.62V13.49Zm-4.11,5.6c0,1.27.48,2.08,1.38,2.08,1.15,0,1.38-.82,1.38-2.1,0-1.45-.34-2-1.32-2S67.67,17.78,67.67,19.09Z" transform="translate(-31.05 -8.5)"/><path class="cls-15" d="M73.3,13.49h1.41v1.42H73.3Zm0,2.56h1.41v6.16H73.3Z" transform="translate(-31.05 -8.5)"/><path class="cls-15" d="M81.17,20.12a2.44,2.44,0,0,1-2.62,2.2c-1.84,0-2.72-1.16-2.72-3.19s1-3.2,2.8-3.2a2.32,2.32,0,0,1,2.53,2.25H79.75c-.08-.6-.38-1.15-1.15-1.15-.94,0-1.33.84-1.33,2,0,1.49.48,2.15,1.31,2.15s1-.48,1.18-1.11Z" transform="translate(-31.05 -8.5)"/><path class="cls-15" d="M86.89,20.69A12.66,12.66,0,0,0,87,22.21H85.73a5.88,5.88,0,0,1-.09-.81,2.09,2.09,0,0,1-3.81-1c0-1.05.72-2,2.88-2h.79v-.5c0-.53-.15-1-1-1a.93.93,0,0,0-1.07.91H82.07c.08-1,.67-1.93,2.47-1.93,1.4,0,2.35.5,2.35,2Zm-1.34-1.32h-.83c-1.23,0-1.46.5-1.46,1a.85.85,0,0,0,1,.89c1,0,1.33-.71,1.33-1.73Z" transform="translate(-31.05 -8.5)"/><path class="cls-15" d="M87.55,16.05h.91V14.33h1.4v1.72H91v1.11H89.86v3.4c0,.45.11.64.62.64a2.83,2.83,0,0,0,.41,0v1a3.6,3.6,0,0,1-.93.11c-1.09,0-1.5-.43-1.5-1.54V17.16h-.91Z" transform="translate(-31.05 -8.5)"/><path class="cls-15" d="M97.13,19c0,1.79-.83,3.28-2.88,3.28s-2.83-1.57-2.83-3.25a2.87,2.87,0,0,1,2.91-3.14C96.23,15.93,97.13,17.33,97.13,19Zm-4.27,0c0,1.35.5,2.16,1.45,2.16s1.39-.8,1.39-2.15-.47-2-1.44-2S92.86,17.84,92.86,19Z" transform="translate(-31.05 -8.5)"/><path class="cls-15" d="M98.24,18.14c0-1,0-1.71,0-2.09h1.38a11.4,11.4,0,0,1,0,1.14,1.94,1.94,0,0,1,1.91-1.25v1.44c-1.31,0-1.89.57-1.89,1.95v2.88H98.24Z" transform="translate(-31.05 -8.5)"/><path class="cls-15" d="M105.81,22.21V15.85a7,7,0,0,1-1.16.19V15a2.88,2.88,0,0,0,1.6-.78h1v8Z" transform="translate(-31.05 -8.5)"/><path class="cls-15" d="M108.56,22.22V20.4h1.38v1.82Z" transform="translate(-31.05 -8.5)"/><path class="cls-15" d="M111.4,22.21V15.85a6.84,6.84,0,0,1-1.16.19V15a2.88,2.88,0,0,0,1.6-.78h1v8Z" transform="translate(-31.05 -8.5)"/><path class="cls-15" d="M114.15,22.22V20.4h1.38v1.82Z" transform="translate(-31.05 -8.5)"/><path class="cls-15" d="M117,22.21V15.85a6.84,6.84,0,0,1-1.16.19V15a2.85,2.85,0,0,0,1.6-.78h1v8Z" transform="translate(-31.05 -8.5)"/><path class="cls-15" d="M120.11,18V16.14h1.38V18Zm0,4.27V20.4h1.38v1.82Z" transform="translate(-31.05 -8.5)"/><path class="cls-15" d="M126,14h2.94c1.54,0,2.83.8,2.83,2.4s-1.22,2.54-3,2.54h-1.34v3.3H126Zm1.46,3.78h1.26c1,0,1.56-.35,1.56-1.35s-.62-1.26-1.53-1.26h-1.29Z" transform="translate(-31.05 -8.5)"/><path class="cls-15" d="M132.66,18.14c0-1,0-1.71,0-2.09H134c0,.27,0,.66,0,1.14A2,2,0,0,1,136,15.94v1.44c-1.31,0-1.89.57-1.89,1.95v2.88h-1.41Z" transform="translate(-31.05 -8.5)"/><path class="cls-15" d="M142.12,19c0,1.79-.84,3.28-2.89,3.28s-2.83-1.57-2.83-3.25a2.87,2.87,0,0,1,2.91-3.14C141.21,15.93,142.12,17.33,142.12,19Zm-4.28,0c0,1.35.5,2.16,1.45,2.16s1.39-.8,1.39-2.15-.47-2-1.43-2S137.84,17.84,137.84,19Z" transform="translate(-31.05 -8.5)"/><path class="cls-15" d="M144.63,21.61v3h-1.41V17.84c0-.83,0-1.4,0-1.79h1.37c0,.2,0,.55,0,.87a1.87,1.87,0,0,1,1.82-1c1.3,0,2.32,1,2.32,3.12s-1.12,3.27-2.6,3.27A1.63,1.63,0,0,1,144.63,21.61Zm2.7-2.53c0-1.38-.54-2-1.37-2-1.07,0-1.4.65-1.4,2,0,1.24.27,2,1.35,2C146.82,21.16,147.33,20.44,147.33,19.08Z" transform="translate(-31.05 -8.5)"/><path class="cls-15" d="M155.23,19c0,1.79-.83,3.28-2.89,3.28s-2.82-1.57-2.82-3.25a2.86,2.86,0,0,1,2.9-3.14C154.33,15.93,155.23,17.33,155.23,19ZM151,19c0,1.35.5,2.16,1.44,2.16s1.4-.8,1.4-2.15-.47-2-1.44-2S151,17.84,151,19Z" transform="translate(-31.05 -8.5)"/><path class="cls-15" d="M156.34,18.14c0-1,0-1.71,0-2.09h1.38a11.4,11.4,0,0,1,0,1.14,1.94,1.94,0,0,1,1.91-1.25v1.44c-1.31,0-1.89.57-1.89,1.95v2.88h-1.41Z" transform="translate(-31.05 -8.5)"/><path class="cls-15" d="M160.14,16.05h.91V14.33h1.4v1.72h1.15v1.11h-1.15v3.4c0,.45.11.64.63.64a2.8,2.8,0,0,0,.4,0v1a3.6,3.6,0,0,1-.93.11c-1.09,0-1.5-.43-1.5-1.54V17.16h-.91Z" transform="translate(-31.05 -8.5)"/><path class="cls-15" d="M164.47,13.49h1.41v1.42h-1.41Zm0,2.56h1.41v6.16h-1.41Z" transform="translate(-31.05 -8.5)"/><path class="cls-15" d="M172.7,19c0,1.79-.83,3.28-2.89,3.28S167,20.75,167,19.07a2.87,2.87,0,0,1,2.91-3.14C171.8,15.93,172.7,17.33,172.7,19Zm-4.27,0c0,1.35.5,2.16,1.44,2.16s1.4-.8,1.4-2.15-.47-2-1.44-2S168.43,17.84,168.43,19Z" transform="translate(-31.05 -8.5)"/><path class="cls-15" d="M173.81,18c0-1.27,0-1.65,0-1.92h1.38a7.9,7.9,0,0,1,.05.85,1.87,1.87,0,0,1,1.75-1c1.24,0,1.95.76,1.95,2.26v4H177.5V18.45c0-.76-.22-1.34-1-1.34s-1.24.56-1.24,1.71v3.39h-1.41Z" transform="translate(-31.05 -8.5)"/><path class="cls-15" d="M186.05,13.51a9.11,9.11,0,0,0-1.76,5.27,9.48,9.48,0,0,0,1.76,5.43h-1.33A9.29,9.29,0,0,1,183,18.77a9.17,9.17,0,0,1,1.68-5.26Z" transform="translate(-31.05 -8.5)"/><path class="cls-15" d="M190.79,16.46c0,1.42-.65,2.48-2,2.48s-2-1-2-2.44.72-2.39,2-2.39S190.79,15,190.79,16.46Zm-2.82,0c0,1.05.32,1.52.86,1.52s.85-.47.85-1.52-.3-1.4-.85-1.4S188,15.47,188,16.46Zm.59,5.75,4.84-8h1l-4.86,8Zm7.54-2.37c0,1.43-.65,2.48-2,2.48s-2-1-2-2.44.72-2.39,2-2.39S196.1,18.37,196.1,19.84Zm-2.82,0c0,1.06.32,1.52.86,1.52s.86-.49.86-1.51-.3-1.41-.86-1.41S193.28,18.86,193.28,19.84Z" transform="translate(-31.05 -8.5)"/><path class="cls-15" d="M196.89,24.21a9.08,9.08,0,0,0,1.75-5.27,9.5,9.5,0,0,0-1.75-5.43h1.33A9.32,9.32,0,0,1,199.9,19a9.16,9.16,0,0,1-1.68,5.25Z" transform="translate(-31.05 -8.5)"/><path class="cls-15" d="M209.41,19c0,1.79-.84,3.28-2.89,3.28s-2.83-1.57-2.83-3.25a2.87,2.87,0,0,1,2.91-3.14C208.5,15.93,209.41,17.33,209.41,19Zm-4.28,0c0,1.35.5,2.16,1.45,2.16s1.39-.8,1.39-2.15-.47-2-1.43-2S205.13,17.84,205.13,19Z" transform="translate(-31.05 -8.5)"/><path class="cls-15" d="M210.71,22.21V17.16h-.88V16.05h.88v-.64c0-1.17.51-2,1.82-2a2.26,2.26,0,0,1,.65.09v1.14a1.9,1.9,0,0,0-.44-.05c-.47,0-.62.32-.62.84v.63h1.06v1.11h-1.06v5.05Z" transform="translate(-31.05 -8.5)"/><path class="cls-15" d="M218,21.61v3h-1.4V17.84c0-.83,0-1.4,0-1.79h1.38c0,.2,0,.55,0,.87a1.89,1.89,0,0,1,1.83-1c1.3,0,2.32,1,2.32,3.12s-1.12,3.27-2.6,3.27A1.66,1.66,0,0,1,218,21.61Zm2.71-2.53c0-1.38-.55-2-1.37-2-1.07,0-1.4.65-1.4,2,0,1.24.27,2,1.34,2C220.17,21.16,220.68,20.44,220.68,19.08Z" transform="translate(-31.05 -8.5)"/><path class="cls-15" d="M228.58,19c0,1.79-.83,3.28-2.89,3.28s-2.82-1.57-2.82-3.25a2.86,2.86,0,0,1,2.9-3.14C227.68,15.93,228.58,17.33,228.58,19Zm-4.27,0c0,1.35.5,2.16,1.44,2.16s1.4-.8,1.4-2.15-.47-2-1.44-2S224.31,17.84,224.31,19Z" transform="translate(-31.05 -8.5)"/><path class="cls-15" d="M231.09,21.61v3h-1.4V17.84c0-.83,0-1.4,0-1.79h1.38c0,.2,0,.55,0,.87a1.88,1.88,0,0,1,1.82-1c1.3,0,2.32,1,2.32,3.12s-1.12,3.27-2.59,3.27A1.65,1.65,0,0,1,231.09,21.61Zm2.7-2.53c0-1.38-.54-2-1.37-2-1.07,0-1.4.65-1.4,2,0,1.24.28,2,1.35,2C233.29,21.16,233.79,20.44,233.79,19.08Z" transform="translate(-31.05 -8.5)"/><path class="cls-15" d="M241.34,20.42c0,.85,0,1.48,0,1.79H240a5.31,5.31,0,0,1-.06-.82,1.77,1.77,0,0,1-1.73.93c-1.15,0-1.9-.67-1.9-2.15V16.05h1.4v3.88c0,.7.24,1.21,1,1.21s1.21-.48,1.21-1.65V16.05h1.42Z" transform="translate(-31.05 -8.5)"/><path class="cls-15" d="M242.84,22.21V13.49h1.41v8.72Z" transform="translate(-31.05 -8.5)"/><path class="cls-15" d="M250.38,20.69a12.66,12.66,0,0,0,.09,1.52h-1.25a4.59,4.59,0,0,1-.1-.81,2.08,2.08,0,0,1-3.8-1c0-1.05.71-2,2.87-2h.8v-.5c0-.53-.16-1-1-1s-1,.38-1.07.91h-1.37c.07-1,.66-1.93,2.47-1.93,1.4,0,2.35.5,2.35,2ZM249,19.37h-.83c-1.24,0-1.47.5-1.47,1a.85.85,0,0,0,1,.89c1.05,0,1.34-.71,1.34-1.73Z" transform="translate(-31.05 -8.5)"/><path class="cls-15" d="M251,16.05h.91V14.33h1.41v1.72h1.14v1.11h-1.14v3.4c0,.45.11.64.62.64a2.8,2.8,0,0,0,.4,0v1a3.6,3.6,0,0,1-.93.11c-1.09,0-1.5-.43-1.5-1.54V17.16H251Z" transform="translate(-31.05 -8.5)"/><path class="cls-15" d="M255.36,13.49h1.42v1.42h-1.42Zm0,2.56h1.42v6.16h-1.42Z" transform="translate(-31.05 -8.5)"/><path class="cls-15" d="M263.59,19c0,1.79-.83,3.28-2.88,3.28s-2.83-1.57-2.83-3.25a2.87,2.87,0,0,1,2.91-3.14C262.69,15.93,263.59,17.33,263.59,19Zm-4.27,0c0,1.35.5,2.16,1.45,2.16s1.39-.8,1.39-2.15-.47-2-1.43-2S259.32,17.84,259.32,19Z" transform="translate(-31.05 -8.5)"/><path class="cls-15" d="M264.7,18c0-1.27,0-1.65,0-1.92h1.38a5.93,5.93,0,0,1,.05.85,1.87,1.87,0,0,1,1.75-1c1.25,0,2,.76,2,2.26v4h-1.42V18.45c0-.76-.22-1.34-1-1.34s-1.24.56-1.24,1.71v3.39H264.7Z" transform="translate(-31.05 -8.5)"/><path class="cls-15" d="M31.45,27.89h1.41v3.29a1.88,1.88,0,0,1,1.75-.85c1.56,0,2.38,1.32,2.38,3,0,2-.85,3.39-2.59,3.39A1.63,1.63,0,0,1,32.84,36c0,.22,0,.44,0,.66H31.42c0-.39,0-1.16,0-1.83Zm4.1,5.5c0-1.11-.42-1.89-1.37-1.89s-1.4.7-1.4,2,.33,2.08,1.39,2.08S35.55,34.7,35.55,33.39Z" transform="translate(-31.05 -8.5)"/><path class="cls-15" d="M39.17,33.84c0,.91.37,1.76,1.34,1.76a1.15,1.15,0,0,0,1.18-.83h1.38a2.49,2.49,0,0,1-2.61,1.95c-2,0-2.71-1.4-2.71-3.19,0-1.53.75-3.2,2.78-3.2s2.63,1.48,2.63,3c0,.06,0,.41,0,.49Zm2.6-1c0-.82-.35-1.48-1.26-1.48s-1.27.86-1.31,1.48Z" transform="translate(-31.05 -8.5)"/><path class="cls-15" d="M44.27,36.61V27.89h1.41v8.72Z" transform="translate(-31.05 -8.5)"/><path class="cls-15" d="M52.5,33.44c0,1.79-.84,3.28-2.89,3.28s-2.83-1.57-2.83-3.25a2.87,2.87,0,0,1,2.91-3.14C51.59,30.33,52.5,31.73,52.5,33.44Zm-4.28,0c0,1.35.5,2.16,1.45,2.16s1.39-.8,1.39-2.15-.47-2-1.43-2S48.22,32.24,48.22,33.44Z" transform="translate(-31.05 -8.5)"/><path class="cls-15" d="M54.43,30.45c.57,2.48.92,3.93,1,4.69h0c.15-.73.53-2.15,1.18-4.69H58c.59,2.24,1,4,1.12,4.65h0c.11-.64.39-1.71,1.11-4.65h1.4l-1.84,6.16H58.35c-.48-1.92-.92-3.46-1.07-4.35h0c-.15.9-.65,2.64-1.15,4.35H54.67l-1.75-6.16Z" transform="translate(-31.05 -8.5)"/><path class="cls-15" d="M64.75,30.45h.91V28.73h1.4v1.72h1.15v1.11H67.06V35c0,.45.11.64.62.64a2.83,2.83,0,0,0,.41,0v1a3.6,3.6,0,0,1-.93.11c-1.09,0-1.5-.43-1.5-1.54V31.56h-.91Z" transform="translate(-31.05 -8.5)"/><path class="cls-15" d="M70.42,27.89v3.35a1.84,1.84,0,0,1,1.75-.91c1,0,1.94.56,1.94,2.22v4.06H72.72V32.78c0-.76-.27-1.27-1.07-1.27s-1.23.57-1.23,1.64v3.46H69V27.89Z" transform="translate(-31.05 -8.5)"/><path class="cls-15" d="M76.66,33.84c0,.91.36,1.76,1.34,1.76a1.13,1.13,0,0,0,1.17-.83h1.39A2.5,2.5,0,0,1,78,36.72c-2,0-2.72-1.4-2.72-3.19,0-1.53.76-3.2,2.78-3.2s2.63,1.48,2.63,3c0,.06,0,.41,0,.49Zm2.6-1c0-.82-.36-1.48-1.27-1.48s-1.27.86-1.31,1.48Z" transform="translate(-31.05 -8.5)"/><path class="cls-15" d="M84.53,27.89H86v1.42H84.53Zm0,2.56H86v6.16H84.53Z" transform="translate(-31.05 -8.5)"/><path class="cls-15" d="M87.44,32.37c0-1.27,0-1.65,0-1.92h1.38a5.93,5.93,0,0,1,0,.85,1.87,1.87,0,0,1,1.75-1c1.25,0,2,.76,2,2.26v4H91.13V32.85c0-.76-.22-1.34-1-1.34s-1.24.56-1.24,1.71v3.39H87.44Z" transform="translate(-31.05 -8.5)"/><path class="cls-15" d="M93.27,30.45h.91V28.73h1.4v1.72h1.15v1.11H95.58V35c0,.45.11.64.63.64a2.8,2.8,0,0,0,.4,0v1a3.6,3.6,0,0,1-.93.11c-1.09,0-1.5-.43-1.5-1.54V31.56h-.91Z" transform="translate(-31.05 -8.5)"/><path class="cls-15" d="M98.58,33.84c0,.91.37,1.76,1.34,1.76a1.13,1.13,0,0,0,1.17-.83h1.39a2.5,2.5,0,0,1-2.61,1.95c-2,0-2.72-1.4-2.72-3.19,0-1.53.76-3.2,2.79-3.2s2.62,1.48,2.62,3c0,.06,0,.41,0,.49Zm2.6-1c0-.82-.35-1.48-1.27-1.48s-1.27.86-1.31,1.48Z" transform="translate(-31.05 -8.5)"/><path class="cls-15" d="M103.66,32.54c0-1,0-1.71,0-2.09H105c0,.27,0,.66,0,1.13A2,2,0,0,1,107,30.34v1.44c-1.31,0-1.89.57-1.89,1.95v2.88h-1.41Z" transform="translate(-31.05 -8.5)"/><path class="cls-15" d="M107.76,32.37c0-1.27,0-1.65,0-1.92h1.38a7.9,7.9,0,0,1,0,.85,1.87,1.87,0,0,1,1.75-1c1.24,0,2,.76,2,2.26v4h-1.41V32.85c0-.76-.22-1.34-1-1.34s-1.24.56-1.24,1.71v3.39h-1.42Z" transform="translate(-31.05 -8.5)"/><path class="cls-15" d="M119,35.09a15.16,15.16,0,0,0,.08,1.52H117.8a5.88,5.88,0,0,1-.09-.81,2.08,2.08,0,0,1-3.8-1c0-1.05.71-2,2.87-2h.8v-.5c0-.53-.16-1-1-1s-1,.38-1.07.91h-1.37c.07-1,.66-1.93,2.47-1.93,1.4,0,2.35.5,2.35,2Zm-1.35-1.32h-.82c-1.24,0-1.47.5-1.47,1a.85.85,0,0,0,1,.89c1,0,1.33-.71,1.33-1.73Z" transform="translate(-31.05 -8.5)"/><path class="cls-15" d="M119.62,30.45h.91V28.73h1.4v1.72h1.15v1.11h-1.15V35c0,.45.11.64.63.64a2.8,2.8,0,0,0,.4,0v1a3.6,3.6,0,0,1-.93.11c-1.09,0-1.5-.43-1.5-1.54V31.56h-.91Z" transform="translate(-31.05 -8.5)"/><path class="cls-15" d="M124,27.89h1.41v1.42H124Zm0,2.56h1.41v6.16H124Z" transform="translate(-31.05 -8.5)"/><path class="cls-15" d="M132.18,33.44c0,1.79-.83,3.28-2.89,3.28s-2.82-1.57-2.82-3.25a2.87,2.87,0,0,1,2.91-3.14C131.28,30.33,132.18,31.73,132.18,33.44Zm-4.27,0c0,1.35.5,2.16,1.44,2.16s1.4-.8,1.4-2.15-.47-2-1.44-2S127.91,32.24,127.91,33.44Z" transform="translate(-31.05 -8.5)"/><path class="cls-15" d="M133.29,32.37c0-1.27,0-1.65,0-1.92h1.38a7.9,7.9,0,0,1,.05.85,1.87,1.87,0,0,1,1.75-1c1.24,0,1.95.76,1.95,2.26v4H137V32.85c0-.76-.22-1.34-1-1.34s-1.24.56-1.24,1.71v3.39h-1.41Z" transform="translate(-31.05 -8.5)"/><path class="cls-15" d="M144.49,35.09a12.66,12.66,0,0,0,.09,1.52h-1.25a4.59,4.59,0,0,1-.1-.81,2.08,2.08,0,0,1-3.8-1c0-1.05.71-2,2.87-2h.8v-.5c0-.53-.16-1-1-1s-1,.38-1.07.91h-1.37c.07-1,.66-1.93,2.47-1.93,1.4,0,2.35.5,2.35,2Zm-1.34-1.32h-.83c-1.24,0-1.47.5-1.47,1a.85.85,0,0,0,1,.89c1.05,0,1.34-.71,1.34-1.73Z" transform="translate(-31.05 -8.5)"/><path class="cls-15" d="M146,36.61V27.89h1.41v8.72Z" transform="translate(-31.05 -8.5)"/><path class="cls-15" d="M153.23,36v3h-1.41V32.24c0-.83,0-1.4,0-1.79h1.38c0,.2,0,.55,0,.87a1.88,1.88,0,0,1,1.82-1c1.3,0,2.32,1,2.32,3.12s-1.12,3.27-2.59,3.27A1.65,1.65,0,0,1,153.23,36Zm2.7-2.53c0-1.38-.54-2-1.37-2-1.07,0-1.4.65-1.4,2s.28,2,1.35,2S155.93,34.83,155.93,33.48Z" transform="translate(-31.05 -8.5)"/><path class="cls-15" d="M163.83,33.44c0,1.79-.83,3.28-2.88,3.28s-2.83-1.57-2.83-3.25A2.87,2.87,0,0,1,161,30.33C162.93,30.33,163.83,31.73,163.83,33.44Zm-4.27,0c0,1.35.5,2.16,1.45,2.16s1.39-.8,1.39-2.15-.47-2-1.43-2S159.56,32.24,159.56,33.44Z" transform="translate(-31.05 -8.5)"/><path class="cls-15" d="M165.71,30.45c.67,2.28,1.15,3.85,1.33,4.8h0c.15-.87.85-3,1.39-4.8h1.39l-2.1,6.16h-1.49l-2-6.16Z" transform="translate(-31.05 -8.5)"/><path class="cls-15" d="M171.59,33.84c0,.91.37,1.76,1.34,1.76a1.15,1.15,0,0,0,1.18-.83h1.39a2.5,2.5,0,0,1-2.61,1.95c-2,0-2.72-1.4-2.72-3.19,0-1.53.75-3.2,2.78-3.2s2.63,1.48,2.63,3c0,.06,0,.41,0,.49Zm2.6-1c0-.82-.35-1.48-1.26-1.48s-1.27.86-1.31,1.48Z" transform="translate(-31.05 -8.5)"/><path class="cls-15" d="M176.67,32.54c0-1,0-1.71,0-2.09H178c0,.27,0,.66,0,1.13A2,2,0,0,1,180,30.34v1.44c-1.31,0-1.89.57-1.89,1.95v2.88h-1.42Z" transform="translate(-31.05 -8.5)"/><path class="cls-15" d="M180.48,30.45h.91V28.73h1.4v1.72h1.15v1.11h-1.15V35c0,.45.11.64.62.64a2.83,2.83,0,0,0,.41,0v1a3.6,3.6,0,0,1-.93.11c-1.09,0-1.5-.43-1.5-1.54V31.56h-.91Z" transform="translate(-31.05 -8.5)"/><path class="cls-15" d="M186,30.45c.8,2.74,1.25,4.2,1.36,4.91h0c.18-.73.73-2.79,1.36-4.91h1.42L188,36.88c-.64,1.94-1.31,2.22-2.37,2.22a4.4,4.4,0,0,1-.59-.05V37.89a5.28,5.28,0,0,0,.55,0c.59,0,.85-.42,1.05-1.06l-2.17-6.42Z" transform="translate(-31.05 -8.5)"/><path class="cls-15" d="M194.07,36.61V27.89h1.42v8.72Z" transform="translate(-31.05 -8.5)"/><path class="cls-15" d="M197,27.89h1.41v1.42H197Zm0,2.56h1.41v6.16H197Z" transform="translate(-31.05 -8.5)"/><path class="cls-15" d="M199.88,32.37c0-1.27,0-1.65,0-1.92h1.38a6.23,6.23,0,0,1,0,.85,1.89,1.89,0,0,1,1.76-1c1.24,0,2,.76,2,2.26v4h-1.42V32.85c0-.76-.21-1.34-1-1.34s-1.25.56-1.25,1.71v3.39h-1.41Z" transform="translate(-31.05 -8.5)"/><path class="cls-15" d="M207.53,33.84c0,.91.37,1.76,1.34,1.76a1.12,1.12,0,0,0,1.17-.83h1.39a2.49,2.49,0,0,1-2.61,1.95c-1.95,0-2.72-1.4-2.72-3.19,0-1.53.76-3.2,2.79-3.2s2.62,1.48,2.62,3c0,.06,0,.41,0,.49Zm2.6-1c0-.82-.35-1.48-1.27-1.48s-1.27.86-1.3,1.48Z" transform="translate(-31.05 -8.5)"/><path class="cls-15" d="M211.87,38a9.58,9.58,0,0,0,.76-3.23H214A6.56,6.56,0,0,1,213,38Z" transform="translate(-31.05 -8.5)"/><path class="cls-15" d="M217.41,36.61v-.06c0-1,.39-2.25,2.36-3.79,1-.82,1.42-1.18,1.42-1.95a1.06,1.06,0,0,0-1.13-1.18c-.83,0-1.18.54-1.26,1.4h-1.35a2.44,2.44,0,0,1,2.66-2.51,2.25,2.25,0,0,1,2.52,2.28c0,1.08-.46,1.69-1.89,2.77a4.75,4.75,0,0,0-1.63,1.86h3.74l-.18,1.18Z" transform="translate(-31.05 -8.5)"/><path class="cls-15" d="M229.09,32.43c0,2.23-.56,4.3-2.75,4.3s-2.76-2.07-2.76-4.24.79-4,2.78-4S229.09,30.21,229.09,32.43Zm-4.07,0c0,1.92.29,3.19,1.32,3.19s1.31-1.31,1.31-3.18-.31-2.85-1.29-2.85S225,30.66,225,32.45Z" transform="translate(-31.05 -8.5)"/><path class="cls-15" d="M231,36.61V30.25a7.12,7.12,0,0,1-1.17.19v-1a2.85,2.85,0,0,0,1.6-.78h1v8Z" transform="translate(-31.05 -8.5)"/><path class="cls-15" d="M237.77,30.39a1,1,0,0,0-1.08-.79c-1.17,0-1.42,1.42-1.44,2.51A2,2,0,0,1,237,31.3a2.31,2.31,0,0,1,2.32,2.59,2.58,2.58,0,0,1-2.67,2.83c-2.17,0-2.8-1.6-2.8-3.88s.66-4.32,2.91-4.32a2.14,2.14,0,0,1,2.37,1.87Zm.14,3.57c0-1-.44-1.56-1.27-1.56s-1.32.56-1.32,1.42.31,1.82,1.31,1.82C237.44,35.64,237.91,35,237.91,34Z" transform="translate(-31.05 -8.5)"/><text class="cls-7" transform="translate(438.96 42)"><tspan class="cls-14">S</tspan><tspan class="cls-16" x="4.62" y="0">m</tspan><tspan class="cls-11" x="11.75" y="0">all </tspan><tspan class="cls-17" x="22.67" y="0">I</tspan><tspan class="cls-11" x="24.87" y="0">s</tspan><tspan class="cls-18" x="28.94" y="0">l</tspan><tspan x="31.01" y="0">and </tspan><tspan class="cls-19" x="0" y="11">D</tspan><tspan class="cls-20" x="5.46" y="11">e</tspan><tspan class="cls-21" x="9.98" y="11">v</tspan><tspan x="14.12" y="11">eloping </tspan><tspan class="cls-22" x="44.08" y="11">S</tspan><tspan class="cls-23" x="48.95" y="11">ta</tspan><tspan class="cls-24" x="56.15" y="11">t</tspan><tspan class="cls-11" x="58.73" y="11">e </tspan></text><text class="cls-7" transform="translate(438.96 16.13)"><tspan class="cls-25">S</tspan><tspan x="4.87" y="0">ta</tspan><tspan class="cls-18" x="12.08" y="0">t</tspan><tspan x="14.65" y="0">e</tspan></text></svg>